<?xml version="1.0" encoding="UTF-8"?>
<svg width="51px" height="53px" viewBox="0 0 51 53" version="1.1" xmlns="http://www.w3.org/2000/svg" xmlns:xlink="http://www.w3.org/1999/xlink">
    <!-- Generator: Sketch 51 (57462) - http://www.bohemiancoding.com/sketch -->
    <title>Group</title>
    <desc>Created with Sketch.</desc>
    <defs>
        <polygon id="path-1" points="0 53 62 53 62 0 0 0"></polygon>
    </defs>
    <g id="Page-1" stroke="none" stroke-width="1" fill="none" fill-rule="evenodd">
        <g id="adhara_single_page_final_1366px" transform="translate(-1353.000000, -2037.000000)">
            <g id="Group" transform="translate(1348.000000, 2037.000000)">
                <path d="M10.0463308,26.0069876 L52.9536749,26.0149314 L52.9545844,23.4155419 L49.4512759,23.4093634 C48.8873996,23.4084807 48.4308418,22.9636277 48.4308418,22.4163878 C48.4308418,13.3560369 40.8357926,5.98506859 31.4990934,5.98506859 C22.1633037,5.98506859 14.5682545,13.3560369 14.5682545,22.4163878 C14.5682545,22.9645103 14.1107871,23.4093634 13.5460014,23.4093634 L10.0499687,23.4093634 L10.0463308,26.0069876 Z M53.975928,28 L9.02225879,27.9920562 C8.75032493,27.9920562 8.49021427,27.8870214 8.29831446,27.6999007 C8.10641464,27.5145453 7.99909626,27.2612261 8.00000573,26.9981979 L8.00637208,22.4155051 C8.00728156,21.8673826 8.46474889,21.4242948 9.02862514,21.4242948 L12.5501232,21.4242948 C13.0830772,11.7284396 21.3784243,4 31.4990934,4 C41.6206719,4 49.9169285,11.7293222 50.448973,21.4260601 L53.9786564,21.4322386 C54.5434421,21.4331213 55,21.8770917 55,22.4243316 L54.9990905,27.0070244 C54.9990905,27.2709352 54.8908627,27.5233717 54.6989628,27.7096098 C54.5079725,27.8949652 54.2478619,28 53.975928,28 Z" id="Fill-4" fill="#FFFFFF"></path>
                <mask id="mask-2" fill="white">
                    <use xlink:href="#path-1"></use>
                </mask>
                <g id="Clip-7"></g>
                <path d="M7.01346417,50.8991126 L53.9865358,50.8991126 L53.9865358,49.1008874 L7.01346417,49.1008874 L7.01346417,50.8991126 Z M54.9928203,53 L6.00628445,53 C5.45032124,53 5,52.5301261 5,51.9500234 L5,48.0509108 C5,47.470808 5.45032124,47 6.00628445,47 L54.9928203,47 C55.5487835,47 56,47.470808 56,48.0509108 L56,51.9500234 C56,52.5301261 55.5487835,53 54.9928203,53 Z" id="Fill-6" fill="#FFFFFF" mask="url(#mask-2)"></path>
                <path d="M10.0451784,47.8991126 L52.9548216,47.8991126 L52.9548216,46.1008874 L10.0451784,46.1008874 L10.0451784,47.8991126 Z M53.9778655,50 L9.02304388,50 C8.45832366,50 8,49.5301261 8,48.9500234 L8,45.0499766 C8,44.4698739 8.45832366,44 9.02304388,44 L53.9778655,44 C54.5425857,44 55,44.4698739 55,45.0499766 L55,48.9500234 C55,49.5301261 54.5425857,50 53.9778655,50 Z" id="Fill-8" fill="#FFFFFF" mask="url(#mask-2)"></path>
                <path d="M13.9691057,43.931954 L17.0308943,43.931954 L17.0308943,28.068046 L13.9691057,28.068046 L13.9691057,43.931954 Z M18.0150094,46 L12.9841151,46 C12.4404003,46 12,45.5365517 12,44.9655172 L12,27.0335632 C12,26.4625287 12.4404003,26 12.9841151,26 L18.0150094,26 C18.5587242,26 19,26.4625287 19,27.0335632 L19,44.9655172 C19,45.5365517 18.5587242,46 18.0150094,46 Z" id="Fill-9" fill="#FFFFFF" mask="url(#mask-2)"></path>
                <path d="M28.9691057,43.931954 L32.0308943,43.931954 L32.0308943,28.068046 L28.9691057,28.068046 L28.9691057,43.931954 Z M33.0158849,46 L27.9849906,46 C27.4412758,46 27,45.5365517 27,44.9655172 L27,27.0335632 C27,26.4625287 27.4412758,26 27.9849906,26 L33.0158849,26 C33.5595997,26 34,26.4625287 34,27.0335632 L34,44.9655172 C34,45.5365517 33.5595997,46 33.0158849,46 Z" id="Fill-10" fill="#FFFFFF" mask="url(#mask-2)"></path>
                <path d="M44.9691057,43.931954 L48.0308943,43.931954 L48.0308943,28.068046 L44.9691057,28.068046 L44.9691057,43.931954 Z M49.0158849,46 L43.9849906,46 C43.4412758,46 43,45.5365517 43,44.9655172 L43,27.0335632 C43,26.4625287 43.4412758,26 43.9849906,26 L49.0158849,26 C49.5604753,26 50,26.4625287 50,27.0335632 L50,44.9655172 C50,45.5365517 49.5604753,46 49.0158849,46 Z" id="Fill-11" fill="#FFFFFF" mask="url(#mask-2)"></path>
                <path d="M30.9777171,23 L13.0231924,23 C12.4583902,23 12,22.5526901 12,21.9995554 C12,21.4473099 12.4583902,21 13.0231924,21 L30.9777171,21 C31.5425193,21 32,21.4473099 32,21.9995554 C32,22.5526901 31.5425193,23 30.9777171,23" id="Fill-12" fill="#FFFFFF" mask="url(#mask-2)"></path>
                <path d="M36.9786461,23 L35.0213539,23 C34.457065,23 34,22.5526901 34,21.9995554 C34,21.4473099 34.457065,21 35.0213539,21 L36.9786461,21 C37.542935,21 38,21.4473099 38,21.9995554 C38,22.5526901 37.542935,23 36.9786461,23" id="Fill-13" fill="#FFFFFF" mask="url(#mask-2)"></path>
                <path d="M30.9995554,6 C30.4473099,6 30,5.52352384 30,4.9343227 L30,1.06473003 C30,0.47647616 30.4473099,0 30.9995554,0 C31.5518008,0 32,0.47647616 32,1.06473003 L32,4.9343227 C32,5.52352384 31.5518008,6 30.9995554,6" id="Fill-14" fill="#FFFFFF" mask="url(#mask-2)"></path>
            </g>
        </g>
    </g>
</svg>