<?xml version="1.0" encoding="UTF-8"?>
<svg width="56px" height="57px" viewBox="0 0 56 57" version="1.1" xmlns="http://www.w3.org/2000/svg" xmlns:xlink="http://www.w3.org/1999/xlink">
    <!-- Generator: Sketch 51 (57462) - http://www.bohemiancoding.com/sketch -->
    <title>Group</title>
    <desc>Created with Sketch.</desc>
    <defs>
        <polygon id="path-1" points="0 57 56 57 56 0 0 0"></polygon>
    </defs>
    <g id="Page-1" stroke="none" stroke-width="1" fill="none" fill-rule="evenodd">
        <g id="adhara_single_page_final_1366px" transform="translate(-438.000000, -2037.000000)">
            <g id="Group-5" transform="translate(438.000000, 2036.000000)">
                <g id="Group" transform="translate(0.000000, 1.000000)">
                    <path d="M40.2710538,51.8181818 L15.7289462,51.8181818 C15.1311484,51.8181818 14.6461538,51.4265659 14.6461538,50.9545065 C14.6461538,50.4825251 15.1311484,50.0909091 15.7289462,50.0909091 L40.2710538,50.0909091 C40.8688516,50.0909091 41.3538462,50.4825251 41.3538462,50.9545065 C41.3538462,51.4265659 40.8688516,51.8181818 40.2710538,51.8181818" id="Fill-1" fill="#FFFFFF"></path>
                    <path d="M44.5801745,56.1363636 L11.4197269,56.1363636 C10.8227177,56.1363636 10.3384615,55.7447477 10.3384615,55.2726883 C10.3384615,54.8007069 10.8227177,54.4090909 11.4197269,54.4090909 L44.5801745,54.4090909 C45.1771837,54.4090909 45.6615385,54.8007069 45.6615385,55.2726883 C45.6615385,55.7447477 45.1771837,56.1363636 44.5801745,56.1363636" id="Fill-3" fill="#FFFFFF"></path>
                    <mask id="mask-2" fill="white">
                        <use xlink:href="#path-1"></use>
                    </mask>
                    <g id="Clip-6"></g>
                    <path d="M47.3847439,45.6608884 L49.5385825,45.6608884 L49.5385825,28.103635 L47.3847439,28.103635 L47.3847439,45.6608884 Z M42.3590877,45.6608884 L45.230807,45.6608884 L45.230807,28.103635 L42.3590877,28.103635 L42.3590877,45.6608884 Z M37.3334316,45.6608884 L40.2051509,45.6608884 L40.2051509,28.103635 L37.3334316,28.103635 L37.3334316,45.6608884 Z M35.1794947,45.6608884 L33.4994947,45.6608884 L33.4994947,36.714032 C33.4994947,33.8610847 31.3241404,31.5492153 28.6460632,31.5492153 L28.5742456,31.5492153 C25.8964632,31.5492153 23.7210105,33.8610847 23.7210105,36.714032 L23.7210105,45.6608884 L20.820407,45.6608884 L20.820407,28.103635 L35.1794947,28.103635 L35.1794947,45.6608884 Z M31.3456561,45.6608884 L25.8749474,45.6608884 L25.8749474,36.714032 C25.8749474,35.0753817 27.0811088,33.7439596 28.5742456,33.7439596 L28.6460632,33.7439596 C30.1324211,33.7439596 31.3456561,35.0753817 31.3456561,36.714032 L31.3456561,45.6608884 Z M15.7948491,45.6608884 L18.6665684,45.6608884 L18.6665684,28.103635 L15.7948491,28.103635 L15.7948491,45.6608884 Z M10.769193,45.6608884 L13.6409123,45.6608884 L13.6409123,28.103635 L10.769193,28.103635 L10.769193,45.6608884 Z M6.46141754,45.6608884 L8.61525614,45.6608884 L8.61525614,28.103635 L6.46141754,28.103635 L6.46141754,45.6608884 Z M53.2071719,45.6608884 L51.6922246,45.6608884 L51.6922246,28.103635 L53.1282807,28.103635 C53.7242386,28.103635 54.2051509,27.6136116 54.2051509,27.0063629 C54.2051509,26.3992144 53.7242386,25.9090909 53.1282807,25.9090909 L2.8717193,25.9090909 C2.2757614,25.9090909 1.79484912,26.3992144 1.79484912,27.0063629 C1.79484912,27.6136116 2.2757614,28.103635 2.8717193,28.103635 L4.30777544,28.103635 L4.30777544,45.6608884 L3.12312982,45.6608884 L0,50.511069 L0,55.9026279 C0,56.5097764 0.481010526,57 1.07687018,57 C1.67263158,57 2.1538386,56.5097764 2.1538386,55.9026279 L2.1538386,51.1621644 L4.28596491,47.8556326 L51.8861614,47.8556326 L53.8461614,51.7547974 L53.8461614,55.9026279 C53.8461614,56.5097764 54.3273684,57 54.9231298,57 C55.5189895,57 56,56.5097764 56,55.9026279 L56,51.220727 L53.2071719,45.6608884 Z" id="Fill-5" fill="#FFFFFF" mask="url(#mask-2)"></path>
                    <path d="M53.1999591,22.4545455 L3.6615794,22.4545455 C3.06699937,22.4545455 2.58461538,22.121929 2.58461538,21.5908652 C2.58461538,21.0598891 3.06699937,20.7272727 3.6615794,20.7272727 L53.1999591,20.7272727 C53.7945391,20.7272727 54.2769231,21.0598891 54.2769231,21.5908652 C54.2769231,22.121929 53.7945391,22.4545455 53.1999591,22.4545455" id="Fill-7" fill="#FFFFFF" mask="url(#mask-2)"></path>
                    <path d="M29.2747562,5.91934885 L34.3244196,5.91934885 L34.3244196,3.69961835 L29.2747562,3.69961835 L29.2747562,5.91934885 Z M50.9450522,17.6987133 L29.2638975,10.4179406 L29.2638975,8.13907936 L36.4886457,8.13907936 L36.4886457,1.36638522 L29.2747562,1.36638522 C29.2747562,0.641223979 28.7915466,0 28.1927418,0 C27.5939371,0 27.1432047,0.641223979 27.1432047,1.36638522 L27.1432047,10.4179406 L5.90922861,17.6987133 C5.34675095,17.8911919 5.03648993,18.5200632 5.22394958,19.0971952 C5.41150794,19.6817185 6.01742018,19.9999511 6.58730146,19.8074725 L28.4308422,12.401047 L50.2668807,19.8074725 C50.8382427,19.9907372 51.4483996,19.6787822 51.6376362,19.0971952 C51.8250958,18.5200632 51.5149335,17.8911919 50.9450522,17.6987133 Z" id="Fill-8" fill="#FFFFFF" mask="url(#mask-2)"></path>
                </g>
            </g>
        </g>
    </g>
</svg>