<?xml version="1.0" encoding="utf-8"?>
<!-- Generator: Adobe Illustrator 21.0.0, SVG Export Plug-In . SVG Version: 6.00 Build 0)  -->
<svg version="1.1" id="Layer_1" xmlns="http://www.w3.org/2000/svg" xmlns:xlink="http://www.w3.org/1999/xlink" x="0px" y="0px"
	 viewBox="0 0 4120 4120" style="enable-background:new 0 0 4120 4120;" xml:space="preserve">
<style type="text/css">
	.st0{fill:#CFCFCF;}
</style>
<g id="Consensys">
	<g id="main-Logo_4_">
		<path id="XMLID_126_" class="st0" d="M1957.8,2823.5c-2.2,0-4,1.7-4,4c0,2.1,1.8,3.9,4,3.9s4-1.8,4-3.9
			C1961.8,2825.2,1960,2823.5,1957.8,2823.5z"/>
		<path id="XMLID_125_" class="st0" d="M1847.9,2785.3c-4.4,0-7.9,3.5-7.9,7.9s3.5,8,7.9,8s7.9-3.6,7.9-8
			S1852.3,2785.3,1847.9,2785.3z"/>
		<path id="XMLID_124_" class="st0" d="M1742.2,2735.8c-6.6,0-11.8,5.3-11.8,11.8c0,6.6,5.2,11.9,11.8,11.9s11.9-5.3,11.9-11.9
			C1754.1,2741.1,1748.7,2735.8,1742.2,2735.8z"/>
		<path id="XMLID_123_" class="st0" d="M1641.8,2675.4c-8.8,0-15.8,7.1-15.8,15.9c0,8.7,7.1,15.9,15.8,15.9
			c8.7,0,15.9-7.1,15.9-15.9C1657.7,2682.5,1650.6,2675.4,1641.8,2675.4z"/>
		<path id="XMLID_122_" class="st0" d="M1548,2604.8c-11,0-19.9,8.8-19.9,19.8c0,10.9,8.9,19.8,19.9,19.8c10.9,0,19.8-8.9,19.8-19.8
			C1567.8,2613.6,1559,2604.8,1548,2604.8z"/>
		<path id="XMLID_121_" class="st0" d="M1461.7,2524.6c-13.1,0-23.8,10.6-23.8,23.8s10.7,23.7,23.8,23.7c13.2,0,23.8-10.6,23.8-23.7
			C1485.5,2535.2,1474.9,2524.6,1461.7,2524.6z"/>
		<path id="XMLID_120_" class="st0" d="M1383.9,2435.8c-15.4,0-27.8,12.4-27.8,27.7s12.5,27.7,27.8,27.7s27.8-12.5,27.8-27.7
			C1411.7,2448.2,1399.2,2435.8,1383.9,2435.8z"/>
		<path id="XMLID_119_" class="st0" d="M1315.6,2339.1c-17.5,0-31.7,14.2-31.7,31.8c0,17.5,14.2,31.7,31.7,31.7s31.8-14.2,31.8-31.7
			C1347.4,2353.3,1333.2,2339.1,1315.6,2339.1z"/>
		<path id="XMLID_118_" class="st0" d="M1295.3,2270.3c0-19.7-16-35.7-35.7-35.7s-35.7,16.1-35.7,35.7c0,19.7,16,35.7,35.7,35.7
			S1295.3,2290,1295.3,2270.3z"/>
		<path id="XMLID_117_" class="st0" d="M1257,2163.2c0-21.9-17.8-39.7-39.7-39.7c-21.9,0-39.6,17.8-39.6,39.7
			c0,22,17.7,39.6,39.6,39.6C1239.3,2202.8,1257,2185.2,1257,2163.2z"/>
		<path id="XMLID_116_" class="st0" d="M1233.1,2051.5c0-24.1-19.6-43.6-43.6-43.6c-24.1,0-43.6,19.5-43.6,43.6
			c0,24.1,19.5,43.6,43.6,43.6C1213.5,2095.1,1233.1,2075.6,1233.1,2051.5z"/>
		<path id="XMLID_115_" class="st0" d="M1224.2,1937.2c0-26.4-21.3-47.6-47.6-47.6c-26.2,0-47.6,21.2-47.6,47.6
			c0,26.2,21.4,47.5,47.6,47.5C1202.9,1984.7,1224.2,1963.4,1224.2,1937.2z"/>
		<path id="XMLID_114_" class="st0" d="M1178.7,1873.6c28.5,0,51.5-23.1,51.5-51.6c0-28.4-23-51.5-51.5-51.5s-51.6,23-51.6,51.5
			S1150.2,1873.6,1178.7,1873.6z"/>
		<path id="XMLID_113_" class="st0" d="M1140.3,1708.3c0,30.7,24.8,55.5,55.5,55.5s55.5-24.8,55.5-55.5s-24.8-55.6-55.5-55.6
			S1140.3,1677.6,1140.3,1708.3z"/>
		<path id="XMLID_112_" class="st0" d="M2806.3,2558.4c-1.9,0-3.5,1.6-3.5,3.5c0,2,1.6,3.6,3.5,3.6s3.5-1.6,3.5-3.6
			C2809.8,2560,2808.1,2558.4,2806.3,2558.4z"/>
		<path id="XMLID_111_" class="st0" d="M2704.3,2608.4c-4,0-7.1,3.1-7.1,6.9c0,3.9,3.1,7.1,7.1,7.1c3.9,0,7-3.2,7-7.1
			C2711.4,2611.5,2708.2,2608.4,2704.3,2608.4z"/>
		<path id="XMLID_110_" class="st0" d="M2597.4,2647.4c-5.9,0-10.5,4.7-10.5,10.5c0,5.9,4.7,10.6,10.5,10.6
			c5.7,0,10.5-4.7,10.5-10.6C2607.9,2652.2,2603.1,2647.4,2597.4,2647.4z"/>
		<path id="XMLID_109_" class="st0" d="M2486.5,2675c-7.8,0-13.9,6.2-13.9,14.1c0,7.6,6.2,14,13.9,14s14-6.3,14-14
			C2500.5,2681.2,2494.2,2675,2486.5,2675z"/>
		<path id="XMLID_108_" class="st0" d="M2373.1,2690.7c-9.7,0-17.5,7.9-17.5,17.5c0,9.8,7.9,17.6,17.5,17.6s17.4-7.8,17.4-17.6
			C2390.4,2698.6,2382.6,2690.7,2373.1,2690.7z"/>
		<path id="XMLID_107_" class="st0" d="M2258.2,2694.3c-11.7,0-21,9.4-21,21.1c0,11.5,9.3,21,21,21c11.5,0,21-9.5,21-21
			C2279.2,2703.7,2269.7,2694.3,2258.2,2694.3z"/>
		<path id="XMLID_106_" class="st0" d="M2143.1,2685.9c-13.4,0-24.4,10.9-24.4,24.5c0,13.5,11,24.5,24.4,24.5
			c13.6,0,24.6-11,24.6-24.5C2167.7,2696.8,2156.6,2685.9,2143.1,2685.9z"/>
		<path id="XMLID_105_" class="st0" d="M2029.3,2665.1c-15.5,0-28,12.6-28,28c0,15.5,12.5,28.1,28,28.1s28-12.6,28-28.1
			C2057.4,2677.7,2044.8,2665.1,2029.3,2665.1z"/>
		<path id="XMLID_104_" class="st0" d="M1918.6,2630.1c-17.4,0-31.6,14.1-31.6,31.5s14.2,31.5,31.6,31.5c17.4,0,31.5-14.1,31.5-31.5
			S1936,2630.1,1918.6,2630.1z"/>
		<path id="XMLID_103_" class="st0" d="M1813,2580.8c-19.5,0-35.1,15.7-35.1,35c0,19.4,15.6,35,35.1,35c19.3,0,35-15.7,35-35
			S1832.3,2580.8,1813,2580.8z"/>
		<path id="XMLID_102_" class="st0" d="M1752.9,2556.5c0-21.3-17.3-38.5-38.5-38.5c-21.3,0-38.6,17.1-38.6,38.5
			c0,21.3,17.3,38.5,38.6,38.5C1735.5,2595,1752.9,2577.8,1752.9,2556.5z"/>
		<path id="XMLID_101_" class="st0" d="M1624.4,2442.8c-23.2,0-42.1,18.9-42.1,42c0,23.2,18.9,42,42.1,42c23.1,0,42-18.8,42-42
			S1647.5,2442.8,1624.4,2442.8z"/>
		<path id="XMLID_100_" class="st0" d="M1544.5,2356.3c-25.2,0-45.5,20.4-45.5,45.6c0,25.2,20.4,45.6,45.5,45.6
			c25.2,0,45.5-20.4,45.5-45.6C1590,2376.7,1569.7,2356.3,1544.5,2356.3z"/>
		<path id="XMLID_99_" class="st0" d="M1476.1,2358.4c27,0,48.9-21.9,48.9-49.1c0-27-21.9-49-48.9-49c-27.1,0-49,22-49,49
			C1427.1,2336.5,1449,2358.4,1476.1,2358.4z"/>
		<path id="XMLID_98_" class="st0" d="M1472.8,2208.7c0-29-23.5-52.5-52.5-52.5s-52.5,23.6-52.5,52.5c0,29,23.4,52.5,52.5,52.5
			C1449.3,2261.2,1472.8,2237.7,1472.8,2208.7z"/>
		<path id="XMLID_97_" class="st0" d="M3218.4,1771.1c-1.7,0-3.2,1.4-3.2,3.1c0,1.7,1.5,3.2,3.2,3.2s3.1-1.5,3.1-3.2
			C3221.6,1772.4,3220.2,1771.1,3218.4,1771.1z"/>
		<path id="XMLID_96_" class="st0" d="M3184.2,1877.8c-3.5,0-6.3,2.7-6.3,6.2s2.8,6.3,6.3,6.3c3.4,0,6.2-2.8,6.2-6.3
			C3190.4,1880.6,3187.7,1877.8,3184.2,1877.8z"/>
		<path id="XMLID_95_" class="st0" d="M3138.6,1980.4c-5.1,0-9.4,4.2-9.4,9.4s4.2,9.5,9.4,9.5c5.3,0,9.5-4.2,9.5-9.5
			C3148.1,1984.6,3143.9,1980.4,3138.6,1980.4z"/>
		<path id="XMLID_94_" class="st0" d="M3082.2,2077.7c-6.9,0-12.6,5.6-12.6,12.5c0,7,5.6,12.5,12.6,12.5c6.9,0,12.5-5.6,12.5-12.5
			C3094.7,2083.2,3089.1,2077.7,3082.2,2077.7z"/>
		<path id="XMLID_93_" class="st0" d="M3015.5,2168.3c-8.6,0-15.7,7.1-15.7,15.7c0,8.6,7.1,15.6,15.7,15.6c8.7,0,15.7-7.1,15.7-15.6
			C3031.2,2175.3,3024.2,2168.3,3015.5,2168.3z"/>
		<path id="XMLID_92_" class="st0" d="M2939.3,2251.4c-10.4,0-18.8,8.4-18.8,18.8c0,10.4,8.4,18.9,18.8,18.9
			c10.4,0,18.8-8.4,18.8-18.9C2958.1,2259.8,2949.7,2251.4,2939.3,2251.4z"/>
		<path id="XMLID_91_" class="st0" d="M2854.5,2326.2c-12,0-21.9,9.7-21.9,21.9s9.8,22,21.9,22c12.2,0,22-9.9,22-22
			S2866.7,2326.2,2854.5,2326.2z"/>
		<path id="XMLID_90_" class="st0" d="M2761.9,2391.2c-13.8,0-25.1,11.3-25.1,25.2s11.3,25.1,25.1,25.1s25-11.2,25-25.1
			C2786.8,2402.5,2775.7,2391.2,2761.9,2391.2z"/>
		<path id="XMLID_89_" class="st0" d="M2661.3,2444.1c-15.7,0-28.4,12.7-28.4,28.2c0,15.6,12.7,28.3,28.4,28.3
			c15.5,0,28.2-12.7,28.2-28.3C2689.5,2456.8,2676.8,2444.1,2661.3,2444.1z"/>
		<path id="XMLID_88_" class="st0" d="M2554.2,2483.3c-17.4,0-31.4,14.1-31.4,31.4c0,17.4,14,31.5,31.4,31.5
			c17.2,0,31.3-14.1,31.3-31.5C2585.5,2497.3,2571.4,2483.3,2554.2,2483.3z"/>
		<path id="XMLID_87_" class="st0" d="M2442.5,2508c-19,0-34.6,15.5-34.6,34.6c0,19,15.5,34.5,34.6,34.5c19,0,34.5-15.5,34.5-34.5
			C2477,2523.4,2461.6,2508,2442.5,2508z"/>
		<path id="XMLID_86_" class="st0" d="M2328.1,2517.7c-20.8,0-37.7,16.9-37.7,37.7c0,20.7,16.8,37.6,37.7,37.6
			c20.8,0,37.7-16.8,37.7-37.6C2365.8,2534.7,2349,2517.7,2328.1,2517.7z"/>
		<path id="XMLID_85_" class="st0" d="M2253.8,2553.3c0-22.5-18.2-40.8-40.8-40.8c-22.5,0-40.7,18.4-40.7,40.8
			c0,22.5,18.2,40.8,40.7,40.8C2235.6,2594.1,2253.8,2575.9,2253.8,2553.3z"/>
		<path id="XMLID_84_" class="st0" d="M2143.2,2536.3c0-24.3-19.7-44-44-44c-24.2,0-43.9,19.6-43.9,44c0,24.2,19.7,43.9,43.9,43.9
			C2123.5,2580.2,2143.2,2560.4,2143.2,2536.3z"/>
		<path id="XMLID_83_" class="st0" d="M2035.8,2504.4c0-26-21.1-47-47.1-47s-47.1,21.1-47.1,47c0,26,21.1,47.1,47.1,47.1
			C2014.6,2551.6,2035.8,2530.5,2035.8,2504.4z"/>
		<path id="XMLID_82_" class="st0" d="M1933.2,2458.5c0-27.7-22.4-50.2-50.1-50.2c-27.7,0-50.2,22.5-50.2,50.2
			c0,27.8,22.5,50.2,50.2,50.2C1910.9,2508.7,1933.2,2486.3,1933.2,2458.5z"/>
		<path id="XMLID_81_" class="st0" d="M2952.8,928.9c1.8,0,3.2-1.4,3.2-3.1c0-1.8-1.4-3.1-3.2-3.1c-1.7,0-3.1,1.3-3.1,3.1
			C2949.7,927.5,2951.1,928.9,2952.8,928.9z"/>
		<path id="XMLID_80_" class="st0" d="M3006.5,1034c3.4,0,6.1-2.8,6.1-6.3c0-3.4-2.8-6.3-6.1-6.3c-3.6,0-6.3,2.8-6.3,6.3
			C3000.2,1031.2,3002.9,1034,3006.5,1034z"/>
		<path id="XMLID_79_" class="st0" d="M3048.9,1144c5.2,0,9.4-4.2,9.4-9.4c0-5.2-4.2-9.4-9.4-9.4c-5.1,0-9.4,4.2-9.4,9.4
			C3039.5,1139.8,3043.8,1144,3048.9,1144z"/>
		<path id="XMLID_78_" class="st0" d="M3080,1258c6.9,0,12.5-5.6,12.5-12.5c0-7-5.6-12.6-12.5-12.6c-7,0-12.5,5.6-12.5,12.6
			S3073,1258,3080,1258z"/>
		<path id="XMLID_77_" class="st0" d="M3083.5,1359c0,8.6,7.1,15.6,15.7,15.6c8.7,0,15.7-7,15.7-15.6c0-8.7-7-15.7-15.7-15.7
			C3090.6,1343.3,3083.5,1350.3,3083.5,1359z"/>
		<path id="XMLID_76_" class="st0" d="M3106.3,1455c-10.4,0-18.8,8.4-18.8,18.9c0,10.3,8.4,18.7,18.8,18.7
			c10.4,0,18.9-8.4,18.9-18.7C3125.2,1463.5,3116.7,1455,3106.3,1455z"/>
		<path id="XMLID_75_" class="st0" d="M3101.3,1566.9c-12,0-21.9,9.8-21.9,22c0,12.1,9.8,22,21.9,22c12.2,0,22-9.9,22-22
			C3123.3,1576.7,3113.5,1566.9,3101.3,1566.9z"/>
		<path id="XMLID_74_" class="st0" d="M3084.1,1677.6c-13.9,0-25,11.2-25,25.1s11.2,25.1,25,25.1s25.2-11.2,25.2-25.1
			S3097.9,1677.6,3084.1,1677.6z"/>
		<path id="XMLID_73_" class="st0" d="M3080.8,1813.4c0-15.7-12.6-28.3-28.2-28.3c-15.6,0-28.3,12.6-28.3,28.3
			c0,15.6,12.7,28.3,28.3,28.3C3068.3,1841.7,3080.8,1829,3080.8,1813.4z"/>
		<path id="XMLID_72_" class="st0" d="M3006.7,1887.7c-17.3,0-31.3,14.1-31.3,31.4c0,17.3,14,31.4,31.3,31.4
			c17.4,0,31.4-14.1,31.4-31.4C3038.1,1901.7,3024.1,1887.7,3006.7,1887.7z"/>
		<path id="XMLID_71_" class="st0" d="M2947.5,1983.2c-19.1,0-34.5,15.4-34.5,34.5c0,19,15.4,34.5,34.5,34.5s34.5-15.4,34.5-34.5
			C2981.9,1998.7,2966.6,1983.2,2947.5,1983.2z"/>
		<path id="XMLID_70_" class="st0" d="M2875.7,2070.1c-20.8,0-37.6,16.8-37.6,37.6s16.8,37.7,37.6,37.7s37.6-16.9,37.6-37.7
			C2913.3,2086.9,2896.5,2070.1,2875.7,2070.1z"/>
		<path id="XMLID_69_" class="st0" d="M2792.9,2146.8c-22.5,0-40.8,18.3-40.8,40.8c0,22.4,18.2,40.8,40.8,40.8
			c22.5,0,40.8-18.3,40.8-40.8S2815.4,2146.8,2792.9,2146.8z"/>
		<path id="XMLID_68_" class="st0" d="M2700.4,2212c-24.3,0-44,19.6-44,44c0,24.2,19.7,43.8,44,43.8s43.9-19.6,43.9-43.8
			C2744.3,2231.7,2724.6,2212,2700.4,2212z"/>
		<path id="XMLID_67_" class="st0" d="M2599.7,2264.6c-26.1,0-47.1,21.2-47.1,47.1c0,26,21,47.1,47.1,47.1c26,0,47.1-21.1,47.1-47.1
			C2646.7,2285.8,2625.7,2264.6,2599.7,2264.6z"/>
		<path id="XMLID_66_" class="st0" d="M2492.6,2303.7c-27.8,0-50.3,22.5-50.3,50.2s22.5,50.2,50.3,50.2c27.7,0,50.3-22.5,50.3-50.2
			C2542.8,2326.2,2520.2,2303.7,2492.6,2303.7z"/>
		<path id="XMLID_65_" class="st0" d="M2165.2,516.7c1.7,0,3.1-1.4,3.1-3.2c0-1.7-1.4-3.1-3.1-3.1c-1.8,0-3.2,1.4-3.2,3.1
			C2162,515.3,2163.4,516.7,2165.2,516.7z"/>
		<path id="XMLID_64_" class="st0" d="M2275.1,554.1c3.4,0,6.3-2.7,6.3-6.3c0-3.4-2.9-6.2-6.3-6.2c-3.5,0-6.3,2.8-6.3,6.2
			C2268.8,551.3,2271.6,554.1,2275.1,554.1z"/>
		<path id="XMLID_63_" class="st0" d="M2380.8,602.8c5.2,0,9.4-4.2,9.4-9.4s-4.2-9.4-9.4-9.4s-9.4,4.2-9.4,9.4
			S2375.6,602.8,2380.8,602.8z"/>
		<path id="XMLID_62_" class="st0" d="M2481.2,662.3c6.9,0,12.5-5.6,12.5-12.6c0-6.9-5.6-12.6-12.5-12.6s-12.6,5.6-12.6,12.6
			C2468.6,656.7,2474.2,662.3,2481.2,662.3z"/>
		<path id="XMLID_61_" class="st0" d="M2574.9,732.1c8.6,0,15.6-6.9,15.6-15.7c0-8.7-7-15.6-15.6-15.6c-8.7,0-15.7,7-15.7,15.6
			C2559.3,725.1,2566.2,732.1,2574.9,732.1z"/>
		<path id="XMLID_60_" class="st0" d="M2661.2,811.5c10.4,0,18.8-8.5,18.8-18.9s-8.4-18.8-18.8-18.8c-10.4,0-18.8,8.4-18.8,18.8
			S2650.8,811.5,2661.2,811.5z"/>
		<path id="XMLID_59_" class="st0" d="M2739.1,899.4c12,0,21.9-9.8,21.9-21.9c0-12.2-9.9-22.1-21.9-22.1c-12.2,0-22,9.9-22,22.1
			C2717.1,889.6,2726.9,899.4,2739.1,899.4z"/>
		<path id="XMLID_58_" class="st0" d="M2807.4,995.3c13.8,0,25-11.3,25-25.2c0-13.9-11.2-25.1-25-25.1c-14,0-25.2,11.2-25.2,25.1
			C2782.3,984,2793.5,995.3,2807.4,995.3z"/>
		<path id="XMLID_57_" class="st0" d="M2863.4,1099c15.5,0,28.2-12.7,28.2-28.2c0-15.6-12.7-28.2-28.2-28.2
			c-15.7,0-28.3,12.6-28.3,28.2C2835.1,1086.3,2847.7,1099,2863.4,1099z"/>
		<path id="XMLID_56_" class="st0" d="M2874.3,1177.8c0,17.4,14,31.4,31.4,31.4c17.3,0,31.4-14,31.4-31.4
			c0-17.3-14.1-31.3-31.4-31.3C2888.3,1146.5,2874.3,1160.5,2874.3,1177.8z"/>
		<path id="XMLID_55_" class="st0" d="M2899,1289.5c0,19,15.4,34.4,34.5,34.4c19,0,34.5-15.4,34.5-34.4c0-19.1-15.5-34.6-34.5-34.6
			C2914.4,1254.9,2899,1270.4,2899,1289.5z"/>
		<path id="XMLID_54_" class="st0" d="M2908.7,1403.9c0,20.8,16.9,37.6,37.7,37.6s37.7-16.8,37.7-37.6c0-20.8-16.9-37.7-37.7-37.7
			C2925.6,1366.2,2908.7,1383.1,2908.7,1403.9z"/>
		<path id="XMLID_53_" class="st0" d="M2985,1518.9c0-22.6-18.2-40.7-40.8-40.7c-22.5,0-40.8,18.1-40.8,40.7
			c0,22.5,18.3,40.7,40.8,40.7C2966.8,1559.7,2985,1541.5,2985,1518.9z"/>
		<path id="XMLID_52_" class="st0" d="M2971.1,1632.7c0-24.3-19.7-44-43.8-44c-24.2,0-44,19.7-44,44c0,24.2,19.7,44,44,44
			C2951.4,1676.7,2971.1,1656.9,2971.1,1632.7z"/>
		<path id="XMLID_51_" class="st0" d="M2942.5,1743.4c0-26-21.1-47.1-47.1-47.1s-47.1,21.1-47.1,47.1c0,25.9,21.1,47.1,47.1,47.1
			C2921.5,1790.4,2942.5,1769.3,2942.5,1743.4z"/>
		<path id="XMLID_50_" class="st0" d="M2849.5,1798.7c-27.6,0-50.1,22.5-50.1,50.2s22.5,50.2,50.1,50.2c27.8,0,50.3-22.5,50.3-50.2
			S2877.3,1798.7,2849.5,1798.7z"/>
		<path id="XMLID_49_" class="st0" d="M1316.8,782.2c1.7,0,3.1-1.4,3.1-3.1s-1.4-3.2-3.1-3.2c-1.8,0-3.2,1.4-3.2,3.2
			C1313.6,780.8,1315,782.2,1316.8,782.2z"/>
		<path id="XMLID_48_" class="st0" d="M1418.6,731.8c3.5,0,6.3-2.7,6.3-6.2s-2.8-6.3-6.3-6.3c-3.4,0-6.3,2.7-6.3,6.3
			C1412.3,729.1,1415.2,731.8,1418.6,731.8z"/>
		<path id="XMLID_47_" class="st0" d="M1525.6,692.5c5.3,0,9.4-4.2,9.4-9.4c0-5.2-4.2-9.5-9.4-9.5c-5.2,0-9.4,4.3-9.4,9.5
			C1516.2,688.2,1520.4,692.5,1525.6,692.5z"/>
		<path id="XMLID_46_" class="st0" d="M1636.4,664.5c7,0,12.5-5.6,12.5-12.5s-5.5-12.6-12.5-12.6c-6.9,0-12.5,5.6-12.5,12.6
			C1623.9,658.9,1629.5,664.5,1636.4,664.5z"/>
		<path id="XMLID_45_" class="st0" d="M1749.9,648.5c8.7,0,15.7-7,15.7-15.7c0-8.6-7-15.7-15.7-15.7s-15.7,7.1-15.7,15.7
			C1734.2,641.5,1741.3,648.5,1749.9,648.5z"/>
		<path id="XMLID_44_" class="st0" d="M1864.8,644.5c10.4,0,18.8-8.4,18.8-18.8c0-10.4-8.4-18.9-18.8-18.9
			c-10.4,0-18.9,8.4-18.9,18.9C1845.9,636.1,1854.4,644.5,1864.8,644.5z"/>
		<path id="XMLID_43_" class="st0" d="M1979.8,652.5c12.2,0,21.9-9.8,21.9-21.9c0-12.2-9.8-22-21.9-22c-12.2,0-21.9,9.8-21.9,22
			S1967.7,652.5,1979.8,652.5z"/>
		<path id="XMLID_42_" class="st0" d="M2093.6,672.9c13.8,0,25.1-11.2,25.1-25.1c0-13.9-11.2-25.1-25.1-25.1
			c-13.8,0-25,11.2-25,25.1C2068.6,661.8,2079.8,672.9,2093.6,672.9z"/>
		<path id="XMLID_41_" class="st0" d="M2204.4,707.6c15.5,0,28.3-12.7,28.3-28.3c0-15.6-12.8-28.2-28.3-28.2
			c-15.6,0-28.2,12.7-28.2,28.2C2176.2,695,2188.9,707.6,2204.4,707.6z"/>
		<path id="XMLID_40_" class="st0" d="M2310,756.5c17.4,0,31.3-14,31.3-31.4s-14-31.4-31.3-31.4s-31.3,14-31.3,31.4
			C2278.7,742.6,2292.7,756.5,2310,756.5z"/>
		<path id="XMLID_39_" class="st0" d="M2374.1,784.5c0,19.1,15.4,34.6,34.5,34.6c19,0,34.5-15.4,34.5-34.6c0-19-15.4-34.5-34.5-34.5
			C2389.6,750,2374.1,765.4,2374.1,784.5z"/>
		<path id="XMLID_38_" class="st0" d="M2498.7,893.9c20.7,0,37.6-16.9,37.6-37.7c0-20.7-16.9-37.5-37.6-37.5
			c-20.9,0-37.7,16.8-37.7,37.5C2461,877,2477.8,893.9,2498.7,893.9z"/>
		<path id="XMLID_37_" class="st0" d="M2578.5,979.9c22.5,0,40.8-18.3,40.8-40.8s-18.3-40.8-40.8-40.8c-22.6,0-40.8,18.3-40.8,40.8
			C2537.8,961.6,2555.9,979.9,2578.5,979.9z"/>
		<path id="XMLID_36_" class="st0" d="M2646.9,987.7c-24.3,0-43.9,19.7-43.9,43.9c0,24.3,19.6,43.9,43.9,43.9
			c24.3,0,43.9-19.6,43.9-43.9C2690.8,1007.4,2671.1,987.7,2646.9,987.7z"/>
		<path id="XMLID_35_" class="st0" d="M2655.7,1132.3c0,25.9,21,47,47,47s47-21,47-47s-21-47.1-47-47.1
			C2676.6,1085.3,2655.7,1106.3,2655.7,1132.3z"/>
		<path id="XMLID_34_" class="st0" d="M2694.6,1239.3c0,27.8,22.5,50.3,50.3,50.3c27.6,0,50.1-22.5,50.1-50.3
			c0-27.7-22.5-50.1-50.1-50.1C2717.1,1189.2,2694.6,1211.7,2694.6,1239.3z"/>
		<path id="XMLID_33_" class="st0" d="M2772.5,1297.6c-29.4,0-53.3,24-53.3,53.4c0,29.5,23.9,53.3,53.3,53.3
			c29.4,0,53.3-23.9,53.3-53.3C2825.9,1321.6,2802,1297.6,2772.5,1297.6z"/>
		<path id="XMLID_32_" class="st0" d="M904.5,1560.9c-3.2,0-5.9,2.6-5.9,5.9s2.7,5.9,5.9,5.9c3.3,0,5.9-2.6,5.9-5.9
			C910.5,1563.5,907.8,1560.9,904.5,1560.9z"/>
		<path id="XMLID_31_" class="st0" d="M938.8,1445.1c-6.6,0-11.9,5.3-11.9,11.9c0,6.5,5.3,11.8,11.9,11.8c6.4,0,11.8-5.3,11.8-11.8
			C950.6,1450.4,945.3,1445.1,938.8,1445.1z"/>
		<path id="XMLID_30_" class="st0" d="M1002.1,1351.2c0-9.8-8-17.8-17.9-17.8c-9.8,0-17.7,7.9-17.7,17.8c0,9.8,8,17.7,17.7,17.7
			C994.1,1369,1002.1,1361,1002.1,1351.2z"/>
		<path id="XMLID_29_" class="st0" d="M1040.7,1274.5c13.1,0,23.7-10.6,23.7-23.7s-10.7-23.7-23.7-23.7s-23.7,10.6-23.7,23.7
			C1017.1,1263.9,1027.7,1274.5,1040.7,1274.5z"/>
		<path id="XMLID_28_" class="st0" d="M1107.4,1186.6c16.4,0,29.6-13.2,29.6-29.6c0-16.3-13.2-29.6-29.6-29.6s-29.6,13.3-29.6,29.6
			C1077.9,1173.4,1091,1186.6,1107.4,1186.6z"/>
		<path id="XMLID_27_" class="st0" d="M1183.6,1106.2c19.6,0,35.5-15.9,35.5-35.5c0-19.5-15.9-35.5-35.5-35.5s-35.5,15.9-35.5,35.5
			S1164,1106.2,1183.6,1106.2z"/>
		<path id="XMLID_26_" class="st0" d="M1268.5,1034.4c22.9,0,41.4-18.6,41.4-41.5c0-22.8-18.5-41.5-41.4-41.5s-41.4,18.7-41.4,41.5
			C1227,1015.8,1245.6,1034.4,1268.5,1034.4z"/>
		<path id="XMLID_25_" class="st0" d="M1360.9,971.9c26.2,0,47.4-21.2,47.4-47.3c0-26.2-21.2-47.4-47.4-47.4
			c-26.1,0-47.2,21.2-47.2,47.4C1313.7,950.7,1334.8,971.9,1360.9,971.9z"/>
		<path id="XMLID_24_" class="st0" d="M1461.1,921.1c29.4,0,53.2-23.9,53.2-53.3s-23.8-53.2-53.2-53.2c-29.4,0-53.2,23.8-53.2,53.2
			C1407.9,897.2,1431.7,921.1,1461.1,921.1z"/>
		<path id="XMLID_23_" class="st0" d="M1567.8,883.7c29.6,0,53.9-21.9,58.3-50.4c11.7,16.8,31.2,27.8,53.2,27.8
			c25.2,0,46.9-14.3,57.8-35.2c12.9,17.2,33.5,28.3,56.6,28.3c20.9,0,39.5-9,52.4-23.2c13.9,19.6,36.8,32.4,62.7,32.4
			c16.2,0,31.3-5.1,43.8-13.8c2.8,4.6,6.1,8.9,9.9,12.8c-19.5,2.1-37,10.5-50.5,23.3c-14.6-13.4-34.1-21.5-55.5-21.5
			c-27.2,0-51.5,13.4-66.4,33.9c-13.2-10.4-29.8-16.6-47.9-16.6c-31.2,0-58.1,18.5-70.5,45c-11.7-8-25.9-12.7-41.1-12.7
			c-34.8,0-63.9,24.3-71.4,56.8c-10.4-6.4-22.7-10.1-35.7-10.1c-38,0-68.7,30.7-68.7,68.6c0,0.1,0,0.3,0,0.3
			c-9.4-5.4-20.4-8.6-32-8.6c-35.5,0-64.1,28.7-64.1,64.1c0,6.1,0.9,12.1,2.6,17.8c-9.1-5.6-19.6-8.9-31-8.9
			c-32.9,0-59.6,26.7-59.6,59.6c0,32.8,26.7,59.5,59.6,59.5s59.5-26.7,59.5-59.5c0-5.2-0.9-10-2-14.8c10.1,6.6,22.1,10.4,35,10.4
			c34.7,0,62.8-27.5,64-61.8c10.7,6.8,23.3,10.7,36.7,10.7c1.2,0,2.5-0.2,3.8-0.2c-14.4,13.1-23.9,31.5-25.5,52.1
			c-4.5-0.9-9.2-1.3-14-1.3c-41.6,0-75.3,33.7-75.3,75.3c0,3,0.2,5.9,0.6,8.8c-2.7-0.4-5.4-0.5-8.3-0.5c-39.4,0-71.3,32-71.3,71.3
			c0,7.9,1.2,15.6,3.7,22.7c-1.4-0.1-2.8-0.2-4.2-0.2c-37.3,0-67.5,30.2-67.5,67.4c0,12.9,3.7,24.9,10.1,35.2
			c-0.7-0.1-1.3-0.1-1.9-0.1c-35,0-63.4,28.4-63.4,63.4c0,18.3,7.7,34.8,20.2,46.3c-0.9,0-1.8-0.3-2.7-0.3
			c-32.9,0-59.6,26.7-59.6,59.5c0,32.9,26.7,59.5,59.6,59.5s59.5-26.6,59.5-59.5c0-16.5-6.9-31.5-17.8-42.3c1.3,0.1,2.8,0.2,4.2,0.2
			c18.4,0,35-7.9,46.5-20.4c0,0.7-0.1,1.5-0.1,2.2c0,16.3,5.4,31.3,14.3,43.6c-27.1,9.7-46.5,35.5-46.5,65.9
			c0,21.2,9.6,40.3,24.6,53.2c-23,10.5-38.9,33.6-38.9,60.4c0,25.6,14.4,47.9,35.7,59c-20.4,10.4-34.5,31.5-34.5,56.1
			c0,30,21,55.1,49,61.4c-19.3,9.8-32.7,29.7-32.7,52.9c0,32.8,26.6,59.5,59.5,59.5c3.8,0,7.3-0.4,10.9-1.1
			c-22.7,7.2-39.2,28.2-39.2,53.2c0,31,25.1,56.1,56.1,56.1c30.9,0,56-25.1,56-56.1c0-30.9-25.1-56-56-56c-3.5,0-6.9,0.4-10.2,1
			c24.3-7.5,42-29.9,42-56.6c0-1.5-0.3-2.8-0.5-4.3c9.3,10.1,21.4,17.4,35.2,20.5c-9.7,11.5-15.7,26.3-15.7,42.6
			c0,36.4,29.6,65.9,65.9,65.9c0.6,0,1,0,1.4,0c-7.5,10.3-12,23-12,36.8c0,34.6,28.2,62.7,62.8,62.7c6.4,0,12.5-1,18.2-2.7
			c-6.2,9.4-9.9,20.7-9.9,33c0,32.8,26.6,59.6,59.6,59.6c14.1,0,26.9-5.1,37-13.3c-8.4,9.9-13.8,22.7-13.8,36.7
			c0,31.2,25.2,56.5,56.4,56.5c31.2,0,56.5-25.3,56.5-56.5c0-15.1-6.1-28.7-15.7-38.9c7.6-0.1,14.9-1.5,21.7-3.7c0,0.3,0,0.5,0,0.8
			c0,26.8,15.3,50,37.6,61.4c-3.3-0.7-6.8-1.1-10.3-1.1c-29.4,0-53.3,23.9-53.3,53.3c0,29.5,23.9,53.4,53.3,53.4
			c29.4,0,53.4-23.9,53.4-53.4c0-20.2-11.5-37.7-28.2-46.8c5.3,1.3,10.8,2.1,16.5,2.1c13.4,0,25.8-3.9,36.4-10.4
			c2.8,33.8,31.1,60.4,65.6,60.4c18.7,0,35.5-7.8,47.5-20.3c4.8,29.9,30.7,52.8,62,52.8c23.9,0,44.7-13.4,55.3-33.2
			c5.5,27.3,29.6,47.8,58.4,47.8c30.7,0,55.8-23.4,59-53.3c1.9,29.3,26.2,52.6,56,52.6c31.3,0,56.5-25.4,56.5-56.5
			c0-30.7-24.6-55.6-55.1-56.3c5.1-5.3,9.4-11.4,12.7-18.1c12.5,12.9,30,20.8,49.4,20.8c7.3,0,14.4-1.1,21-3.3
			c-14.1,9.6-23.5,25.8-23.5,44.1c0,29.5,23.9,53.4,53.4,53.4c29.4,0,53.3-23.9,53.3-53.4c0-29.4-23.9-53.3-53.3-53.3
			c-5.4,0-10.4,1-15.3,2.5c15.7-9.5,27.3-25,31.5-43.5c11.5,9.8,26.3,15.6,42.5,15.6c36.4,0,66-29.5,66-65.9c0-0.5-0.2-1-0.2-1.4
			c10.4,7.5,23,11.9,36.7,11.9c34.7,0,62.8-28.1,62.8-62.7c0-6.4-0.9-12.4-2.7-18.2c9.4,6.2,20.8,10.1,33,10.1
			c32.9,0,59.6-26.8,59.6-59.7c0-14.1-5.2-26.9-13.3-37c9.8,8.6,22.5,13.8,36.6,13.8c31.2,0,56.5-25.3,56.5-56.5
			c0-31.1-25.3-56.4-56.5-56.4c-15.2,0-28.8,6-38.9,15.8c-0.2-7.7-1.4-15-3.7-21.9c0.2,0,0.4,0,0.6,0c26.8,0,50.1-15.3,61.5-37.6
			c-0.6,3.4-1.1,6.8-1.1,10.3c0,29.4,23.9,53.3,53.4,53.3c29.4,0,53.4-23.9,53.4-53.3c0-29.5-23.9-53.3-53.4-53.3
			c-20.3,0-37.8,11.5-46.8,28.1c1.3-5.2,2.1-10.8,2.1-16.5c0-13.4-4-25.9-10.5-36.5c33.8-2.7,60.4-31,60.4-65.6
			c0-18.6-7.8-35.6-20.3-47.5c29.9-4.7,52.8-30.6,52.8-61.9c0-23.9-13.3-44.8-33.1-55.3c27.2-5.5,47.8-29.6,47.8-58.4
			c0-30.8-23.4-55.8-53.4-59c29.3-2.1,52.5-26.2,52.5-56.1c0-31.2-25.3-56.5-56.4-56.5c-31.2,0-56.5,25.3-56.5,56.5
			c0,29,22,52.7,50.2,55.8c-31.1,2.2-55.7,27.7-55.7,59.3c0,22.5,12.7,41.8,31.1,52c-29.5,5.2-52,30.8-52,61.7
			c0,17.2,7,32.9,18.3,44.2c-32.2,4.4-57,31.8-57,65.2c0,12.2,3.3,23.5,9,33.2c-36.4,1.9-65.4,32-65.4,68.9c0,6.9,1.1,13.6,3.1,20
			c-1.1-0.1-2.1-0.2-3.2-0.2c-39.9,0-72.2,32.3-72.2,72.2c0,1.7,0.1,3.4,0.3,5.2c-3.8-0.6-7.5-0.9-11.4-0.9
			c-37.9,0-69.2,28-74.4,64.5c-6.6-1.7-13.4-2.8-20.5-2.8c-31.4,0-58.4,18.6-71,45.4c-15.4-12.4-35.5-18.2-56.3-14.2
			c-22.9,4.4-41.2,19.7-49.9,39.6c-14.8-16.1-36.9-24.8-60.2-21.7c-22.7,3.1-41.4,16.9-51.5,35.8c-12.5-15.7-31.8-25.7-53.4-26
			c-19.9-0.3-38,8.2-50.8,21.5c-8-17.6-23.3-31.9-43.3-37.7c-21.2-6.4-43.1-2.1-59.7,9.7c-4.5-19.8-17.6-37.6-37.6-47.1
			c-19.1-9.1-40.3-8.8-58.3-0.7c-0.6-19.6-9.4-38.8-26-52c-15.9-12.6-35.6-17.1-54.1-14.1c4.5-19.1,0.7-40.1-12-57.1
			c-13.4-17.9-33.8-27.5-54.5-27.7c8.1-18.5,8-40.4-2.2-59.7c-9.2-17.6-25-29.4-42.6-34.3c11.2-14.5,16.6-33.5,13.5-53.1
			c-3.4-21.4-16.3-38.9-33.7-48.9c16.6-12.8,27.3-33.1,27.1-55.8c-0.2-20.5-9.3-38.8-23.6-51.3c17.4-8.7,31-24.8,36.2-45.1
			c5.1-20.3,0.6-40.6-10.6-56.5c18.1-4.2,34.4-15.5,44.5-32.7c10.5-18.3,11.9-39.5,5.3-58c20.2,1.1,40.6-6.6,55.1-22.9
			c14.4-15.9,19.8-36.7,16.9-56.4c18.6,4.6,38.9,1.4,55.9-10.4c17.5-12.1,27.6-30.8,29.5-50.5c17.7,9.2,39.2,10.9,58.9,2.6
			c18.5-7.8,31.9-22.7,38.2-40.1c13.9,12.7,33,19.5,53.3,17.5h-0.1c22.2-2.1,40.7-14.5,51.6-31.9c11.5,16.4,30,27.6,51.5,29.3
			c20.5,1.5,39.6-6.2,53.3-19.7c7.2,18.2,22.3,33.4,42.5,40c20.8,6.9,42.5,3.4,59.5-7.9c3.8,19.7,15.9,37.7,34.8,48h-0.1
			c15.7,8.7,33.4,10.5,49.5,6.6c1.9,2.6,3.9,5.1,5.9,7.4c0.9,14.8,6.7,29.4,17.3,41.3c0.4,0.5,1,0.9,1.5,1.4
			c35.2,36.9,117.1,126.4,101.8,246.3c-3.9,29.9,12.9,45,34.3,21.9c129.9-140.1,109.6-312.1,106.7-332.1
			c-0.8-13.2-3.6-25.7-8.4-37.3c1.5-7.3,2.3-14.8,2.3-22.5c0-36.1-17.3-68.2-44-88.6c1.2-6.5,2-13.2,2-20.1
			c0-44.8-27.5-83-66.7-98.8c-1-50.1-38-91.2-86.1-98.7c-8.4-45.1-47.8-79.4-95.3-79.4c-1.8,0-3.4,0.2-5.2,0.2
			c-11.9-36.8-46.5-63.5-87.4-63.5c-8.1,0-15.7,1.1-23.1,3c-13.7-30-44-50.9-79.1-50.9c-13.7,0-26.7,3.2-38.3,8.9
			c-14.3-24.3-40.6-40.6-70.9-40.6c-19.3,0-37,6.6-51.1,17.8c-13.9-19.3-36.6-31.9-62.2-31.9c-24.2,0-46,11.2-59.9,28.8
			c-13.1-16.1-32.8-26.3-55.2-26.3c-28.7,0-53.4,17.2-64.5,41.7c-11.9-14.1-29.8-23.1-49.8-23.1c-33.5,0-61,25.3-64.6,57.9
			c-10.8-14.3-27.7-23.5-46.9-23.5c-32.7,0-59.1,26.5-59.1,59.1C1508.6,857.2,1535,883.7,1567.8,883.7z"/>
		<path id="XMLID_22_" class="st0" d="M1170.1,2410.7c-2.5,0-4.5,2.1-4.5,4.6s2,4.6,4.5,4.6c2.6,0,4.7-2.1,4.7-4.6
			C1174.7,2412.7,1172.6,2410.7,1170.1,2410.7z"/>
		<path id="XMLID_21_" class="st0" d="M1116.6,2304.2c-5.1,0-9.2,4.1-9.2,9.1c0,5.1,4.1,9.2,9.2,9.2s9.1-4.2,9.1-9.2
			C1125.7,2308.3,1121.7,2304.2,1116.6,2304.2z"/>
		<path id="XMLID_20_" class="st0" d="M1074.1,2192.6c-7.6,0-13.7,6.2-13.7,13.8c0,7.5,6.2,13.7,13.7,13.7s13.7-6.2,13.7-13.7
			C1087.8,2198.8,1081.6,2192.6,1074.1,2192.6z"/>
		<path id="XMLID_19_" class="st0" d="M1043,2077.2c-10.2,0-18.3,8.2-18.3,18.3c0,10.2,8.1,18.3,18.3,18.3
			c10.1,0,18.3-8.1,18.3-18.3C1061.3,2085.4,1053.1,2077.2,1043,2077.2z"/>
		<path id="XMLID_18_" class="st0" d="M1046.7,1982.1c0-12.7-10.2-22.9-22.9-22.9c-12.7,0-23,10.3-23,22.9c0,12.6,10.2,22.9,23,22.9
			C1036.4,2004.9,1046.7,1994.7,1046.7,1982.1z"/>
		<path id="XMLID_17_" class="st0" d="M1044.2,1867.1c0-15.1-12.3-27.4-27.5-27.4s-27.5,12.3-27.5,27.4c0,15.2,12.3,27.5,27.5,27.5
			C1031.8,1894.7,1044.2,1882.3,1044.2,1867.1z"/>
		<path id="XMLID_16_" class="st0" d="M989.6,1752.2c0,17.7,14.3,32,32.1,32c17.6,0,32-14.3,32-32c0-17.8-14.4-32-32-32
			C1003.9,1720.1,989.6,1734.4,989.6,1752.2z"/>
		<path id="XMLID_15_" class="st0" d="M1038.9,1675c20.2,0,36.6-16.4,36.6-36.7c0-20.2-16.4-36.6-36.6-36.6
			c-20.3,0-36.7,16.4-36.7,36.6C1002.2,1658.6,1018.6,1675,1038.9,1675z"/>
		<path id="XMLID_14_" class="st0" d="M1070.4,1486.4c-22.8,0-41.3,18.4-41.3,41.2c0,22.7,18.5,41.2,41.3,41.2s41.1-18.4,41.1-41.2
			C1111.6,1504.8,1093.2,1486.4,1070.4,1486.4z"/>
		<path id="XMLID_13_" class="st0" d="M1116.2,1467.8c25.4,0,45.8-20.5,45.8-45.8s-20.5-45.8-45.8-45.8s-45.7,20.5-45.7,45.8
			C1070.4,1447.3,1090.9,1467.8,1116.2,1467.8z"/>
		<path id="XMLID_12_" class="st0" d="M1175.5,1373.7c27.8,0,50.3-22.5,50.3-50.3s-22.5-50.4-50.3-50.4c-27.9,0-50.5,22.6-50.5,50.4
			S1147.6,1373.7,1175.5,1373.7z"/>
		<path id="XMLID_11_" class="st0" d="M1302.2,1233.3c0-30.4-24.6-55-55-55c-30.3,0-54.9,24.7-54.9,55s24.6,54.9,54.9,54.9
			C1277.6,1288.3,1302.2,1263.7,1302.2,1233.3z"/>
	</g>
	<g id="XMLID_2_">
		<path id="XMLID_10_" class="st0" d="M275.9,3607.3c-32.2,0-63-6.3-91.5-18.5c-28.5-12.3-53.5-29.3-74.5-50.6
			c-21-21.2-37.9-46.5-50.1-75.2c-12.3-28.6-18.5-59.5-18.5-91.9s6.2-63.4,18.5-92c12.2-28.6,29.1-53.9,50.1-75.1
			c21-21.2,46-38.3,74.4-50.8c28.5-12.5,59.4-18.9,91.7-18.9c32.8,0,64,6.5,92.8,19.2c28.7,12.7,54,30.3,75.5,52.3
			c4.6,4.7,8.1,10.5,10.4,17.3c2.7,8.1,1.6,16.2-3,23.4c-5.3,8-13.1,12.4-23.1,13.1c-0.1,0-0.2,0-0.3,0c-11,0-18.7-3.2-24.9-9.6
			c-16.1-13.7-35.6-26.8-57.8-38.4c-21.7-11.2-45-16.9-69.7-16.9c-23.9,0-46.7,4.7-68.1,13.9c-21.2,9.3-39.9,22.2-55.4,38.2
			c-15.7,16.2-28.2,35.1-37,56.3c-9.1,21.3-13.7,44.2-13.7,68.1c0,23.9,4.6,46.7,13.7,68.1c8.9,21.2,21.4,40,37,55.8
			c15.5,15.8,34.2,28.5,55.5,37.8c21.2,9.2,44.1,13.9,68,13.9c25.3,0,49.2-4.9,71.1-14.6c21.7-9.7,40.9-23.3,56.8-40.5
			c4.8-5.4,11.2-9.1,18.7-10.9c2.3-0.6,4.7-0.9,7.1-0.9c5.5,0,10.7,1.7,15.4,4.9c7.8,6.3,11.4,14.3,11.4,24.2
			c0,9.4-2.9,17.4-8.6,23.6c-21.6,23.6-47.5,42.1-76.8,55C341.7,3600.7,309.6,3607.3,275.9,3607.3z"/>
		<path id="XMLID_3_" class="st0" d="M767.1,3606.6c-32.3,0-63.1-6.2-91.6-18.5c-28.5-12.2-53.5-29.2-74.4-50.2
			c-21.1-21-38-46.1-50.2-74.4c-12.2-28.4-18.4-59.2-18.4-91.6c0-32.3,6.2-63.2,18.4-91.6c12.3-28.4,29.2-53.5,50.2-74.8
			c20.9-21.2,46-38.2,74.4-50.5c28.5-12.3,59.4-18.5,91.6-18.5s63,6.2,91.5,18.5s53.6,29.3,74.9,50.5c21.2,21.2,38.2,46.4,50.5,74.9
			c12.2,28.5,18.5,59.3,18.5,91.6s-6.3,63.2-18.5,91.6c-12.2,28.4-29.2,53.4-50.5,74.5c-21.3,21-46.5,37.9-74.9,50.1
			C830.1,3600.3,799.4,3606.6,767.1,3606.6z M767.1,3197c-23.9,0-46.7,4.6-68,13.6c-21.4,9.1-40,21.6-55.5,37.3
			c-15.7,16-28.2,34.8-37.2,55.9c-9,21.2-13.5,44.1-13.5,68.1s4.5,46.9,13.5,68c9,21.3,21.5,40,37.2,55.5
			c15.4,15.6,34.1,28.1,55.5,37.1c21,9.1,44,13.6,68,13.6s46.9-4.6,68-13.6c21.4-9.1,40.2-21.6,55.9-37.1
			c15.7-15.5,28.3-34.1,37.4-55.4c9-21.1,13.5-44,13.5-68s-4.5-47-13.5-68c-9.1-21.2-21.7-40-37.5-55.9
			c-15.8-15.7-34.5-28.3-55.9-37.4C813.7,3201.5,790.8,3197,767.1,3197z"/>
		<path id="XMLID_7_" class="st0" d="M1418.4,3608c-8.4,0-15.6-3-21.4-8.8c-5.9-5.8-8.9-13-8.9-21.4v-269.3
			c0-15.6-2.9-29.9-8.9-43.8c-6-13.6-14.3-25.8-24.7-36.3c-10.5-10.3-22.7-18.6-36.3-24.5c-13.7-6-28.3-9-43.8-9
			c-15.4,0-30.1,3-43.8,9c-13.6,5.9-25.7,14.2-35.9,24.5c-10.2,10.4-18.4,22.7-24.3,36.4c-5.9,13.8-8.9,28.5-8.9,43.8v269.3
			c0,8.4-3,15.6-8.9,21.5c-5.7,5.7-13,8.8-21.3,8.8c-8.5,0-15.7-3-21.5-8.8s-8.8-13-8.8-21.4v-269.3c0-23.7,4.5-46.4,13.5-67.6
			c9-21.3,21.5-39.8,37.1-55.3c15.6-15.7,34.2-28.2,55.3-37.3c21-9.2,43.8-13.9,67.6-13.9c23.8,0,46.6,4.7,67.7,14
			c21,9,39.6,21.5,55.3,37.2c15.7,15.5,28.2,34.1,37.4,55.2c9.2,21.1,13.8,43.9,13.8,67.7V3578c0,8.4-2.9,15.5-8.7,21.4
			C1433.9,3605,1426.7,3608,1418.4,3608z"/>
		<path id="XMLID_6_" class="st0" d="M1715.7,3608c-23.3,0-45.2-3.8-65.4-11.2c-20.3-7.4-38.4-17.9-53.9-31
			c-15.5-13.3-27.8-28.8-36.5-46.4c-8.9-17.6-13.4-36.8-13.4-57.1c0-7.8,2.8-14.7,8.4-20.3s12.6-8.5,20.5-8.5s14.7,2.8,20.3,8.4
			c5.6,5.6,8.4,12.5,8.4,20.4c0,11.8,2.7,23.1,8.3,33.6c5.5,10.5,13.4,19.8,23.2,27.8c9.8,7.8,21.7,14.2,35.3,18.9
			c13.7,4.6,28.4,7,44,7s30.5-2.4,44.4-7c13.8-4.7,26-11.1,36.4-19.1c10.3-7.8,18.1-16.9,23.8-27.7c5.4-10.1,7.7-21.3,6.9-33
			c-0.9-11-4.3-21.4-10.2-30.8c-6.1-9.8-14.1-18.7-23.8-26.4s-21.1-14.3-34-19.4c-12.6-5.1-26.3-9-40.5-11.4
			c-19.9-1.4-39.8-5.4-58.7-11.7c-18.7-6.3-35.7-14.7-50.1-25c-14.5-10.2-26.4-22.4-35.3-36.4c-9.1-14.2-13.8-30.2-13.8-47.5
			c0-17.1,4.3-33.2,12.8-47.9c8.3-14.5,20-27.3,34.6-38.1c14.3-10.7,31.2-19.2,50.5-25.4c19-6.2,39.6-9.3,61.3-9.3
			c21.5,0,42.1,3.2,61.3,9.3c19,6.3,36,14.8,50.4,25.4c14.7,11.1,26.3,23.8,34.5,38.1c8.6,14.6,12.9,30.8,12.9,47.9
			c0,8.4-3,15.7-8.9,21.4c-5.8,5.8-12.9,8.8-21.4,8.8c-8.6,0-15.8-3.2-21.4-9.4c-5.2-5.8-8.2-13.6-8.8-23.1
			c-0.4-7.1-2.9-13.7-7.7-20.4c-5.2-7.1-12-13.3-20.9-18.9c-9.1-5.7-19.7-10.3-31.7-13.6c-12.2-3.3-25.1-5.1-38.4-5.1
			c-13.9,0-27.3,1.7-39.5,5.1c-12.2,3.3-22.8,7.8-31.7,13.5c-8.4,5.6-15.3,12.2-20.4,19.9c-4.8,7.2-7.2,14.6-7.2,22.5
			c0,7.4,2.8,14.1,8.6,20.5c6.5,7.2,14.7,13.4,24.3,18.5c10.2,5.5,21.4,10.1,33.2,13.7c11.7,3.6,23,6.1,33.7,7.5
			c22.4,2.5,43.8,7.8,63.6,15.8c20.1,8.3,37.7,18.7,52.4,30.9c15.2,12.7,27.2,27.7,35.5,44.3c8.6,16.9,12.9,35.6,12.9,55.3
			c0,20.2-4.5,39.5-13.4,57.4c-8.6,17.8-21,33.4-36.5,46.5c-15.4,12.9-33.5,23.3-53.6,30.9C1760.9,3604.1,1738.9,3608,1715.7,3608z"
			/>
		<path id="XMLID_5_" class="st0" d="M2020.9,3608c-8.5,0-15.6-3-21.5-8.8c-5.8-5.8-8.8-13-8.8-21.4v-413.1c0-8.4,3.1-15.7,8.9-21.5
			c5.8-5.8,12.9-8.8,21.4-8.8h252.2c8.3,0,15.7,3.1,21.4,8.8s8.8,13.2,8.8,21.5s-2.9,15.5-8.8,21.3c-5.7,5.8-13.1,8.8-21.4,8.8
			h-221.9v144.7h157.1c8.3,0,15.7,3.1,21.4,8.8c5.8,5.8,8.9,13.1,8.9,21.4c0,8.3-3.1,15.7-8.9,21.5c-5.7,5.7-13.1,8.8-21.4,8.8
			h-157.1v147.5h221.9c8.3,0,15.7,3,21.4,8.8c5.9,5.9,8.8,13.2,8.8,21.5c0,8.4-2.9,15.5-8.8,21.4c-5.7,5.8-13.1,8.8-21.4,8.8H2020.9
			z"/>
		<path id="XMLID_4_" class="st0" d="M2701.9,3608c-8.4,0-15.6-3-21.4-8.8c-5.8-5.8-8.9-13.1-8.9-21.5v-269.3
			c0-15.6-2.9-29.9-8.9-43.8c-5.9-13.6-14.1-25.7-24.6-36.2c-10.4-10.4-22.7-18.7-36.4-24.6c-13.5-6-28.2-9-43.6-9
			c-15.5,0-30.2,3-43.8,9c-13.6,5.9-25.7,14.1-35.9,24.5c-10.4,10.6-18.5,22.8-24.4,36.3c-5.9,13.8-8.9,28.5-8.9,43.8v269.3
			c0,8.4-3,15.6-8.9,21.5c-5.8,5.8-12.9,8.8-21.4,8.8c-8.3,0-15.5-3-21.4-8.8s-8.8-13.1-8.8-21.5v-269.3c0-23.7,4.6-46.5,13.4-67.6
			c9.1-21.2,21.5-39.8,37.1-55.3c15.7-15.8,34.2-28.3,55.1-37.3c21.1-9.2,43.9-13.9,67.7-13.9c23.7,0,46.5,4.7,67.7,14
			c20.7,8.9,39.4,21.4,55.1,37.2c15.7,15.6,28.2,34.1,37.3,55.2c9.2,21.1,13.9,43.9,13.9,67.7v269.3c0,8.4-3,15.6-8.8,21.4
			C2717.4,3605,2710.2,3608,2701.9,3608z"/>
		<path id="XMLID_127_" class="st0" d="M2999.2,3608c-23.2,0-45.2-3.8-65.4-11.2c-20.3-7.4-38.4-17.9-53.9-31
			c-15.5-13.2-27.8-28.8-36.6-46.4c-8.8-17.8-13.4-36.9-13.4-57.1c0-7.8,2.9-14.7,8.4-20.3c5.7-5.7,12.5-8.5,20.4-8.5
			c8,0,14.8,2.8,20.4,8.4c5.7,5.7,8.5,12.5,8.5,20.4c0,11.9,2.7,23.2,8.2,33.5c5.6,10.6,13.4,20,23.1,27.7
			c9.9,7.9,21.8,14.3,35.3,19c13.6,4.6,28.5,7,44,7c15.6,0,30.5-2.4,44.4-7c13.8-4.7,26.1-11.2,36.4-19.1
			c10.3-7.8,18.2-17.1,23.8-27.7c5.4-10.1,7.7-21.3,6.9-33c-0.9-11-4.4-21.4-10.2-30.8c-6.1-9.8-14-18.7-23.8-26.5
			c-9.5-7.7-20.9-14.2-34-19.4c-12.5-5.1-26.2-9-40.6-11.4c-19.9-1.4-39.9-5.4-58.6-11.7c-18.8-6.3-35.7-14.7-50.2-25
			c-14.5-10.2-26.4-22.4-35.2-36.4c-9.1-14.3-13.8-30.3-13.8-47.5c0-16.9,4.4-33,12.8-47.9c8.5-14.5,20.1-27.4,34.7-38.1
			c14.4-10.7,31.3-19.2,50.4-25.4c19.1-6.2,39.7-9.3,61.3-9.3s42.3,3.2,61.3,9.3c19.1,6.3,36,14.8,50.5,25.4
			c14.6,10.8,26.3,23.6,34.5,38.1c8.6,14.9,12.9,31,12.9,47.9c0,8.3-3.1,15.7-9,21.4c-5.6,5.8-12.8,8.8-21.3,8.8
			c-8.6,0-15.8-3.2-21.5-9.5c-5.2-5.7-8.2-13.4-8.7-23c-0.4-7.1-2.9-13.8-7.8-20.4c-5.1-6.9-12.1-13.3-20.9-18.9
			c-9-5.7-19.7-10.3-31.7-13.6c-12.3-3.4-24.9-5.1-38.5-5.1c-13.9,0-27.1,1.7-39.5,5.1c-12.1,3.3-22.7,7.8-31.5,13.5
			c-8.5,5.6-15.3,12.2-20.4,19.9c-4.9,7.2-7.2,14.6-7.2,22.5c0,7.5,2.9,14.1,8.5,20.5c6.6,7.2,14.8,13.4,24.4,18.5
			c10.2,5.4,21.3,10.1,33.2,13.7c11.5,3.6,22.8,6.1,33.5,7.5c22.4,2.5,43.8,7.8,63.6,15.8c19.9,8.1,37.5,18.5,52.4,30.9
			c15,12.5,26.8,27.4,35.4,44.2c8.7,17,13.1,35.7,13.1,55.4c0,20.2-4.4,39.4-13.3,57.4c-8.8,17.7-21,33.4-36.6,46.5
			c-15.4,12.9-33.4,23.3-53.6,30.9C3044.4,3604.1,3022.3,3608,2999.2,3608z"/>
		<path id="XMLID_128_" class="st0" d="M3455,3608c-8.3,0-15.6-3-21.4-8.8c-5.9-5.9-8.9-13.1-8.9-21.5v-154l-186.3-240.6
			c-5-6.2-7.4-13.8-6.5-21.8c0.5-7.9,4.2-14.9,10.7-20.2c5.7-4.6,12.3-6.9,19.4-6.9c10.5,0.7,17.4,4.5,22.7,10.9l170.5,219.2
			l173.7-219.2c5.4-6.6,12.2-10.2,20.3-10.9c0.2,0,0.4,0,0.5,0c9.3,0,15.7,2.3,21.3,6.7c6.6,5.4,10.3,12.2,10.9,20.4
			c0.6,7.9-1.7,15.5-6.8,21.8l-189.9,240.6v153.9c0,8.4-2.9,15.7-8.8,21.5C3470.6,3605,3463.4,3608,3455,3608z"/>
		<path id="XMLID_129_" class="st0" d="M3909.8,3608c-23.3,0-45.2-3.8-65.5-11.2c-20.2-7.4-38.3-17.9-53.8-31
			c-15.4-13.2-27.8-28.8-36.6-46.4c-8.8-17.6-13.3-36.7-13.3-57.1c0-7.8,2.8-14.7,8.4-20.3c5.6-5.7,12.5-8.5,20.5-8.5
			c7.8,0,14.9,2.9,20.3,8.5c5.6,5.6,8.4,12.5,8.4,20.3c0,11.8,2.7,23.1,8.2,33.6c5.5,10.4,13.3,19.7,23.3,27.8
			c9.8,7.8,21.7,14.2,35.3,18.9c13.6,4.6,28.4,7,44,7s30.6-2.4,44.5-7c13.8-4.7,26.1-11.2,36.4-19.1c10.2-7.8,18.2-17.1,23.8-27.7
			c5.4-10.1,7.7-21.3,6.9-33c-0.9-10.9-4.4-21.3-10.2-30.8c-6.1-9.8-14.1-18.7-23.9-26.5c-9.6-7.7-21-14.2-34-19.4
			c-12.6-5.1-26.3-9-40.5-11.4c-20-1.4-39.9-5.4-58.7-11.7c-18.8-6.3-35.7-14.7-50.2-25c-14.5-10.2-26.4-22.4-35.2-36.4
			c-9.1-14.3-13.7-30.3-13.7-47.5c0-16.9,4.3-33,12.8-47.9c8.4-14.5,20-27.3,34.7-38.1c14.3-10.7,31.3-19.2,50.4-25.4
			s39.7-9.3,61.3-9.3c21.7,0,42.2,3.2,61.3,9.3c19.2,6.3,36.1,14.9,50.3,25.5c14.7,10.7,26.3,23.5,34.7,38
			c8.5,14.9,12.9,31,12.9,47.9c0,8.4-3.1,15.7-9,21.4c-5.7,5.8-12.9,8.8-21.4,8.8c-8.6,0-15.8-3.2-21.3-9.4
			c-5.2-5.7-8.3-13.4-8.9-23c-0.4-7.2-2.9-13.8-7.7-20.4c-5.2-7.1-12-13.3-21-18.9c-9-5.7-19.7-10.3-31.6-13.6
			c-12.4-3.4-24.9-5.1-38.5-5.1c-13.9,0-27.2,1.7-39.5,5.1c-12.2,3.3-22.7,7.8-31.5,13.5c-8.5,5.6-15.4,12.2-20.4,19.9
			c-4.9,7.2-7.2,14.6-7.2,22.5c0,7.4,2.7,14.1,8.6,20.5c6.6,7.2,14.8,13.4,24.4,18.5c10.2,5.4,21.2,10.1,33.2,13.7
			c11.7,3.6,22.9,6.1,33.6,7.5c22.4,2.5,43.8,7.8,63.6,15.8c20,8.3,37.7,18.6,52.4,30.9c15.1,12.6,27,27.4,35.5,44.3
			c8.5,16.9,13,35.5,13,55.3c0,20.2-4.5,39.4-13.4,57.4c-8.7,17.7-21,33.4-36.6,46.5c-15.4,12.9-33.5,23.3-53.6,30.9
			C3954.9,3604.1,3932.9,3608,3909.8,3608z"/>
	</g>
</g>
</svg>
