<?xml version="1.0" encoding="UTF-8"?>
<svg width="53px" height="58px" viewBox="0 0 53 58" version="1.1" xmlns="http://www.w3.org/2000/svg" xmlns:xlink="http://www.w3.org/1999/xlink">
    <!-- Generator: Sketch 51 (57462) - http://www.bohemiancoding.com/sketch -->
    <title>Fill 1</title>
    <desc>Created with Sketch.</desc>
    <defs></defs>
    <g id="Page-1" stroke="none" stroke-width="1" fill="none" fill-rule="evenodd">
        <g id="adhara_single_page_final_1366px" transform="translate(-1041.000000, -2036.000000)" fill="#FFFFFF">
            <g id="Group-5" transform="translate(438.000000, 2036.000000)">
                <path d="M632.104346,14.6685345 L632.104346,12.3607703 L646.99623,20.8472079 L646.99623,22.5720416 C646.99623,22.5720416 632.138749,14.6760269 632.104346,14.6685345 Z M632.104346,7.55404603 L646.99623,16.799995 L646.99623,18.6055807 L632.104346,9.86430766 L632.104346,7.55404603 Z M632.104346,2.60283789 L646.99623,12.7405723 L646.99623,14.5338555 L632.104346,5.03075859 L632.104346,2.60283789 Z M629.887923,4.97183656 L624.223711,6.5520015 L624.223711,4.6142344 L629.887923,2.93352276 L629.887923,4.97183656 Z M629.887923,9.33761685 L624.223711,10.9178743 L624.223711,8.96761979 L629.887923,7.38754735 L629.887923,9.33761685 Z M623.157295,49.760998 L610.432646,50.7116129 L610.432646,47.9848271 L623.209086,46.2429735 L633.310979,47.8770655 C633.951349,47.9652173 634.59423,47.5192783 634.682656,46.8823284 C634.771547,46.2453784 634.409474,45.6598581 633.769104,45.5716138 L623.381475,43.9179119 C623.282914,43.9032971 623.253346,43.9032971 623.157295,43.9155995 L610.432646,45.6427457 L610.432646,42.9380672 L623.236144,40.3631652 L633.310979,42.9746969 C633.951349,43.0605363 634.59423,42.6170948 634.682656,41.9800524 C634.771547,41.3431949 634.409474,40.7576746 633.769104,40.6694303 L623.381475,38.0357912 C623.265712,38.0185863 623.272965,38.0210838 623.157295,38.0407862 L610.432646,40.581186 L610.432646,37.7686533 L623.218849,34.4907569 L633.310979,38.0283913 C633.943911,38.1583527 634.552109,37.751541 634.682656,37.124396 C634.810879,36.494846 634.402035,35.8798183 633.769104,35.7500419 L623.457721,32.1656954 C623.304951,32.1363731 623.312482,32.1339681 623.157295,32.1633829 L610.432646,35.3947522 L610.432646,32.4793604 L623.213828,28.6574758 L633.310979,32.8616598 C633.934054,33.033061 634.51287,32.6680589 634.682656,32.0506263 C634.855139,31.4307887 634.392179,30.7890288 633.769104,30.6200327 L623.531549,26.3301943 C623.332195,26.2763597 623.354325,26.2737697 623.157295,26.3276968 L610.432646,30.0760445 L610.432646,27.4963325 L623.233633,22.8144822 L633.310979,27.6138991 C633.929219,27.7878902 634.505432,27.4326005 634.682656,26.8151679 C634.859974,26.1978278 634.389761,25.5535704 633.769104,25.3770818 L623.541312,20.4822058 C623.324663,20.4208787 623.374037,20.4234687 623.157295,20.4896057 L610.432646,25.0610119 L610.432646,22.5108071 L623.263109,16.8417122 L633.310979,22.1212002 C633.924105,22.3098987 634.48823,21.9717214 634.682656,21.3568788 C634.874944,20.7443487 634.384647,20.0926914 633.769104,19.9015879 L623.571067,14.4995383 C623.317225,14.4211914 623.403605,14.4309964 623.157295,14.5264556 L609.309511,20.447981 C608.031467,20.9452571 607.969819,21.9325942 607.969819,22.3516159 L607.969819,55.5476595 L607.969819,55.550157 L604.169812,55.550157 C603.522004,55.550157 603,56.1331798 603,56.7750322 C603,57.4169771 603.522004,58 604.169812,58 L654.832605,58 C655.477904,58 656,57.4169771 656,56.7750322 C656,56.1331798 655.477904,55.550157 654.832605,55.550157 L649.609223,55.550157 L649.609223,12.2555062 C649.614058,11.7997623 649.362912,11.3808331 648.94663,11.1898221 L632.303793,0.106375236 C632.045116,-0.0112838287 631.7472,-0.0332061545 631.471321,0.0499506845 L622.871653,2.63216016 C622.38647,2.77673651 622.007288,3.2178655 622.007288,3.72244899 L622.007288,13.8405736 L629.887923,11.7532351 L629.887923,16.4864225 L646.99623,24.7695467 L646.99623,26.548215 L636.027275,20.9991841 L636.027275,23.4220174 L646.99623,28.7286077 L646.99623,30.5267009 L636.027275,25.8377282 L636.027275,28.2336441 L646.99623,32.6729613 L646.99623,34.41722 L636.027275,30.6884821 L636.027275,33.0771831 L646.99623,36.553583 L646.99623,38.2759193 C646.986374,38.319949 636.859747,35.6593001 636.027275,35.5368311 L636.027275,37.8862199 C636.150477,37.9524494 646.99623,40.3680677 646.99623,40.39258 L646.99623,42.0634867 L636.027275,40.39258 L636.027275,42.7469638 L646.99623,44.1727474 L646.99623,46.1327143 L636.027275,45.231124 L636.027275,47.5708004 L646.99623,48.4722982 L646.99623,50.3342159 C646.99623,50.3441134 636.970582,50.1456099 636.027275,50.079473 L636.027275,52.4093444 C636.059354,52.3653148 646.88056,52.6714874 646.88056,52.6664924 L646.88056,55.550157 L610.432646,55.550157 L610.432646,55.5476595 L610.432646,53.0414844 L623.218849,52.0858745 L633.310979,52.6370776 C633.956184,52.6739848 634.645649,52.1864212 634.682656,51.5444763 C634.719756,50.9027164 634.414309,50.3539183 633.769104,50.3146986 L623.157295,49.760998 Z" id="Fill-1"></path>
            </g>
        </g>
    </g>
</svg>