<?xml version="1.0" encoding="UTF-8"?>
<svg width="62px" height="89px" viewBox="0 0 62 89" version="1.1" xmlns="http://www.w3.org/2000/svg" xmlns:xlink="http://www.w3.org/1999/xlink">
    <!-- Generator: Sketch 51 (57462) - http://www.bohemiancoding.com/sketch -->
    <title>Group 3</title>
    <desc>Created with Sketch.</desc>
    <defs></defs>
    <g id="Page-1" stroke="none" stroke-width="1" fill="none" fill-rule="evenodd">
        <g id="adhara_single_page_final_1366px" transform="translate(-498.000000, -1430.000000)" fill="#421492">
            <g id="Our-products" transform="translate(217.000000, 1239.000000)">
                <g id="Group-3" transform="translate(281.000000, 191.000000)">
                    <path d="M47.7829,61.5567 C48.2679,55.4467 53.1489,50.5647 59.2599,50.0777 L59.2599,61.5567 L47.7829,61.5567 Z M1.9999,50.0777 C8.1099,50.5647 12.9899,55.4467 13.4749,61.5567 L1.9999,61.5567 L1.9999,50.0777 Z M13.4749,27.4607 C12.9899,33.5717 8.1099,38.4527 1.9999,38.9397 L1.9999,27.4607 L13.4749,27.4607 Z M59.2599,38.9397 C53.1489,38.4527 48.2679,33.5717 47.7829,27.4607 L59.2599,27.4607 L59.2599,38.9397 Z M15.4749,61.5567 C14.9819,54.3437 9.2129,48.5737 1.9999,48.0777 L1.9999,40.9397 C9.2129,40.4447 14.9819,34.6737 15.4749,27.4607 L45.7829,27.4607 C46.2769,34.6737 52.0469,40.4447 59.2599,40.9397 L59.2599,48.0777 C52.0469,48.5737 46.2769,54.3437 45.7829,61.5567 L15.4749,61.5567 Z M44.6769,86.4007 C44.4789,86.8797 43.9049,87.1287 43.4139,86.9267 C43.1749,86.8277 42.9879,86.6437 42.8879,86.4057 C42.7889,86.1667 42.7889,85.9047 42.8869,85.6647 C43.0369,85.3007 43.3879,85.0647 43.7819,85.0647 C43.9079,85.0647 44.0309,85.0887 44.1489,85.1377 C44.6419,85.3407 44.8789,85.9077 44.6769,86.4007 Z M30.6299,86.9997 C30.0959,86.9997 29.6619,86.5657 29.6619,86.0327 C29.6619,85.5017 30.0929,85.0717 30.6219,85.0667 C30.6249,85.0667 30.6269,85.0687 30.6299,85.0687 C30.6319,85.0687 30.6349,85.0667 30.6369,85.0667 C31.1669,85.0717 31.5959,85.5017 31.5959,86.0327 C31.5959,86.5657 31.1629,86.9997 30.6299,86.9997 Z M17.4769,86.9997 C16.9439,86.9997 16.5109,86.5657 16.5109,86.0327 C16.5109,85.4987 16.9439,85.0657 17.4769,85.0657 C18.0109,85.0657 18.4449,85.4987 18.4449,86.0327 C18.4449,86.5657 18.0109,86.9997 17.4769,86.9997 Z M17.4769,2.0187 C18.0109,2.0187 18.4449,2.4517 18.4449,2.9857 C18.4449,3.5187 18.0109,3.9517 17.4769,3.9517 C16.9439,3.9517 16.5109,3.5187 16.5109,2.9857 C16.5109,2.4517 16.9439,2.0187 17.4769,2.0187 Z M30.6299,2.0187 C31.1629,2.0187 31.5959,2.4517 31.5959,2.9857 C31.5959,3.5157 31.1669,3.9457 30.6369,3.9507 C30.6349,3.9507 30.6329,3.9487 30.6299,3.9487 C30.6269,3.9487 30.6239,3.9507 30.6209,3.9507 C30.0919,3.9457 29.6619,3.5157 29.6619,2.9857 C29.6619,2.4517 30.0959,2.0187 30.6299,2.0187 Z M43.4139,2.0907 C43.5319,2.0417 43.6549,2.0177 43.7799,2.0177 C44.1749,2.0177 44.5259,2.2527 44.6769,2.6177 C44.8789,3.1117 44.6419,3.6777 44.1489,3.8797 C43.6579,4.0787 43.0849,3.8317 42.8869,3.3527 C42.6839,2.8597 42.9209,2.2937 43.4139,2.0907 Z M60.2599,25.4607 L39.2099,25.4607 L39.2099,16.5527 L44.2219,5.9107 C44.4559,5.8747 44.6859,5.8217 44.9089,5.7297 C46.4219,5.1077 47.1469,3.3707 46.5259,1.8577 C46.0669,0.7407 44.9889,0.0177 43.7799,0.0177 C43.3929,0.0177 43.0139,0.0927 42.6539,0.2407 C41.1399,0.8627 40.4149,2.5997 41.0369,4.1137 C41.2779,4.7017 41.6929,5.1747 42.2069,5.4967 L37.3049,15.9027 C37.2419,16.0357 37.2099,16.1817 37.2099,16.3277 L37.2099,25.4607 L31.6299,25.4607 L31.6299,5.7667 C32.7719,5.3537 33.5959,4.2687 33.5959,2.9857 C33.5959,1.3487 32.2649,0.0187 30.6299,0.0187 C28.9929,0.0187 27.6619,1.3487 27.6619,2.9857 C27.6619,4.2687 28.4859,5.3537 29.6299,5.7667 L29.6299,25.4607 L24.0499,25.4607 L24.0499,16.3277 C24.0499,16.1817 24.0159,16.0357 23.9539,15.9027 L19.0459,5.4937 C19.8829,4.9677 20.4449,4.0437 20.4449,2.9857 C20.4449,1.3487 19.1139,0.0187 17.4769,0.0187 C15.8419,0.0187 14.5109,1.3487 14.5109,2.9857 C14.5109,4.4677 15.6069,5.6897 17.0299,5.9077 L22.0499,16.5527 L22.0499,25.4607 L0.9999,25.4607 C0.4479,25.4607 -0.0001,25.9097 -0.0001,26.4607 L-0.0001,62.5567 C-0.0001,63.1097 0.4479,63.5567 0.9999,63.5567 L22.0499,63.5567 L22.0499,72.4647 L17.0299,83.1107 C15.6069,83.3277 14.5109,84.5497 14.5109,86.0327 C14.5109,87.6687 15.8419,88.9997 17.4769,88.9997 C19.1139,88.9997 20.4449,87.6687 20.4449,86.0327 C20.4449,84.9737 19.8829,84.0497 19.0469,83.5247 L23.9539,73.1157 C24.0159,72.9817 24.0499,72.8357 24.0499,72.6887 L24.0499,63.5567 L29.6299,63.5567 L29.6299,83.2507 C28.4859,83.6637 27.6619,84.7487 27.6619,86.0327 C27.6619,87.6687 28.9929,88.9997 30.6299,88.9997 C32.2649,88.9997 33.5959,87.6687 33.5959,86.0327 C33.5959,84.7487 32.7719,83.6637 31.6299,83.2507 L31.6299,63.5567 L37.2099,63.5567 L37.2099,72.6887 C37.2099,72.8357 37.2419,72.9817 37.3049,73.1147 L42.2069,83.5207 C41.6939,83.8427 41.2779,84.3177 41.0369,84.9057 C40.7349,85.6377 40.7379,86.4447 41.0439,87.1757 C41.3489,87.9077 41.9219,88.4757 42.6539,88.7767 C43.0139,88.9247 43.3929,88.9997 43.7809,88.9997 C44.9889,88.9997 46.0669,88.2777 46.5259,87.1607 C47.1469,85.6467 46.4219,83.9107 44.9089,83.2877 C44.6859,83.1967 44.4559,83.1427 44.2219,83.1077 L39.2099,72.4647 L39.2099,63.5567 L60.2599,63.5567 C60.8119,63.5567 61.2599,63.1097 61.2599,62.5567 L61.2599,26.4607 C61.2599,25.9097 60.8119,25.4607 60.2599,25.4607 Z" id="Fill-1"></path>
                    <path d="M30.6296,53.3428 C27.1586,53.3428 24.3356,49.3798 24.3356,44.5088 C24.3356,39.6378 27.1586,35.6748 30.6296,35.6748 C34.0996,35.6748 36.9226,39.6378 36.9226,44.5088 C36.9226,49.3798 34.0996,53.3428 30.6296,53.3428 M30.6296,33.6748 C26.0566,33.6748 22.3356,38.5348 22.3356,44.5088 C22.3356,50.4828 26.0566,55.3428 30.6296,55.3428 C35.2026,55.3428 38.9226,50.4828 38.9226,44.5088 C38.9226,38.5348 35.2026,33.6748 30.6296,33.6748" id="Fill-4"></path>
                    <path d="M30.6296,43.5088 C29.5196,43.5088 28.7826,42.9498 28.7826,42.5808 C28.7826,42.2108 29.5196,41.6528 30.6296,41.6528 L33.4756,41.6528 C34.0276,41.6528 34.4756,41.2038 34.4756,40.6528 C34.4756,40.0998 34.0276,39.6528 33.4756,39.6528 L31.6296,39.6528 L31.6296,38.8188 C31.6296,38.2658 31.1816,37.8188 30.6296,37.8188 C30.0766,37.8188 29.6296,38.2658 29.6296,38.8188 L29.6296,39.7608 C27.9766,40.0898 26.7826,41.2048 26.7826,42.5808 C26.7826,44.2228 28.4726,45.5088 30.6296,45.5088 C31.7386,45.5088 32.4756,46.0678 32.4756,46.4368 C32.4756,46.8068 31.7386,47.3648 30.6296,47.3648 L27.7826,47.3648 C27.2316,47.3648 26.7826,47.8128 26.7826,48.3648 C26.7826,48.9178 27.2316,49.3648 27.7826,49.3648 L29.6296,49.3648 L29.6296,50.1988 C29.6296,50.7518 30.0766,51.1988 30.6296,51.1988 C31.1816,51.1988 31.6296,50.7518 31.6296,50.1988 L31.6296,49.2568 C33.2816,48.9278 34.4756,47.8128 34.4756,46.4368 C34.4756,44.7948 32.7856,43.5088 30.6296,43.5088" id="Fill-6"></path>
                </g>
            </g>
        </g>
    </g>
</svg>