<?xml version="1.0" encoding="utf-8"?>
<!-- Generator: Adobe Illustrator 21.0.0, SVG Export Plug-In . SVG Version: 6.00 Build 0)  -->
<svg version="1.1" id="Layer_1" xmlns="http://www.w3.org/2000/svg" xmlns:xlink="http://www.w3.org/1999/xlink" x="0px" y="0px"
	 viewBox="0 0 90 90" width="100%" height="100%" style="enable-background:new 0 0 90 90;" xml:space="preserve">
<style type="text/css">
	.st0{fill:#421492;}
</style>
<title>Group 3</title>
<desc>Created with Sketch.</desc>
<g id="Page-1">
	<g id="adhara_single_page_final_1366px" transform="translate(-498.000000, -1430.000000)">
		<g id="Our-products" transform="translate(217.000000, 1239.000000)">
			<g id="Group-3" transform="translate(281.000000, 191.000000)">
				<path id="Fill-1" class="st0" d="M61.8,62.1c0.5-6.1,5.4-11,11.5-11.5v11.5H61.8z M16,50.6c6.1,0.5,11,5.4,11.5,11.5H16V50.6z
					 M27.5,28C27,34.1,22.1,39,16,39.4V28H27.5z M73.3,39.4c-6.1-0.5-11-5.4-11.5-11.5h11.5V39.4z M29.5,62.1
					c-0.5-7.2-6.3-13-13.5-13.5v-7.1c7.2-0.5,13-6.3,13.5-13.5h30.3c0.5,7.2,6.3,13,13.5,13.5v7.1c-7.2,0.5-13,6.3-13.5,13.5H29.5z
					 M58.7,86.9c-0.2,0.5-0.8,0.7-1.3,0.5c-0.2-0.1-0.4-0.3-0.5-0.5c-0.1-0.2-0.1-0.5,0-0.7c0.1-0.4,0.5-0.6,0.9-0.6
					c0.1,0,0.2,0,0.4,0.1C58.6,85.8,58.9,86.4,58.7,86.9z M44.6,87.5c-0.5,0-1-0.4-1-1c0-0.5,0.4-1,1-1c0,0,0,0,0,0c0,0,0,0,0,0
					c0.5,0,1,0.4,1,1C45.6,87.1,45.2,87.5,44.6,87.5z M31.5,87.5c-0.5,0-1-0.4-1-1c0-0.5,0.4-1,1-1c0.5,0,1,0.4,1,1
					C32.4,87.1,32,87.5,31.5,87.5z M31.5,2.5c0.5,0,1,0.4,1,1c0,0.5-0.4,1-1,1c-0.5,0-1-0.4-1-1C30.5,3,30.9,2.5,31.5,2.5z
					 M44.6,2.5c0.5,0,1,0.4,1,1c0,0.5-0.4,1-1,1c0,0,0,0,0,0c0,0,0,0,0,0c-0.5,0-1-0.4-1-1C43.7,3,44.1,2.5,44.6,2.5z M57.4,2.6
					c0.1,0,0.2-0.1,0.4-0.1c0.4,0,0.7,0.2,0.9,0.6c0.2,0.5,0,1.1-0.5,1.3c-0.5,0.2-1.1,0-1.3-0.5C56.7,3.4,56.9,2.8,57.4,2.6z
					 M74.3,26H53.2v-8.9l5-10.6c0.2,0,0.5-0.1,0.7-0.2c1.5-0.6,2.2-2.4,1.6-3.9c-0.5-1.1-1.5-1.8-2.7-1.8c-0.4,0-0.8,0.1-1.1,0.2
					c-1.5,0.6-2.2,2.4-1.6,3.9c0.2,0.6,0.7,1.1,1.2,1.4l-4.9,10.4c-0.1,0.1-0.1,0.3-0.1,0.4V26h-5.6V6.3c1.1-0.4,2-1.5,2-2.8
					c0-1.6-1.3-3-3-3c-1.6,0-3,1.3-3,3c0,1.3,0.8,2.4,2,2.8V26H38v-9.1c0-0.1,0-0.3-0.1-0.4L33,6c0.8-0.5,1.4-1.4,1.4-2.5
					c0-1.6-1.3-3-3-3c-1.6,0-3,1.3-3,3c0,1.5,1.1,2.7,2.5,2.9l5,10.6V26H15c-0.6,0-1,0.4-1,1v36.1c0,0.6,0.4,1,1,1h21V73l-5,10.6
					c-1.4,0.2-2.5,1.4-2.5,2.9c0,1.6,1.3,3,3,3c1.6,0,3-1.3,3-3c0-1.1-0.6-2-1.4-2.5L38,73.6c0.1-0.1,0.1-0.3,0.1-0.4v-9.1h5.6v19.7
					c-1.1,0.4-2,1.5-2,2.8c0,1.6,1.3,3,3,3c1.6,0,3-1.3,3-3c0-1.3-0.8-2.4-2-2.8V64.1h5.6v9.1c0,0.1,0,0.3,0.1,0.4L56.2,84
					c-0.5,0.3-0.9,0.8-1.2,1.4c-0.3,0.7-0.3,1.5,0,2.3c0.3,0.7,0.9,1.3,1.6,1.6c0.4,0.1,0.7,0.2,1.1,0.2c1.2,0,2.3-0.7,2.7-1.8
					c0.6-1.5-0.1-3.2-1.6-3.9c-0.2-0.1-0.5-0.1-0.7-0.2l-5-10.6v-8.9h21.1c0.6,0,1-0.4,1-1V27C75.3,26.4,74.8,26,74.3,26z"/>
				<path id="Fill-4" class="st0" d="M44.6,53.8c-3.5,0-6.3-4-6.3-8.8s2.8-8.8,6.3-8.8c3.5,0,6.3,4,6.3,8.8S48.1,53.8,44.6,53.8
					 M44.6,34.2c-4.6,0-8.3,4.9-8.3,10.8s3.7,10.8,8.3,10.8S52.9,51,52.9,45S49.2,34.2,44.6,34.2"/>
				<path id="Fill-6" class="st0" d="M44.6,44c-1.1,0-1.8-0.6-1.8-0.9c0-0.4,0.7-0.9,1.8-0.9h2.8c0.6,0,1-0.4,1-1c0-0.6-0.4-1-1-1
					h-1.8v-0.8c0-0.6-0.4-1-1-1c-0.6,0-1,0.4-1,1v0.9c-1.7,0.3-2.8,1.4-2.8,2.8c0,1.6,1.7,2.9,3.8,2.9c1.1,0,1.8,0.6,1.8,0.9
					c0,0.4-0.7,0.9-1.8,0.9h-2.8c-0.6,0-1,0.4-1,1c0,0.6,0.4,1,1,1h1.8v0.8c0,0.6,0.4,1,1,1c0.6,0,1-0.4,1-1v-0.9
					c1.7-0.3,2.8-1.4,2.8-2.8C48.5,45.3,46.8,44,44.6,44"/>
			</g>
		</g>
	</g>
</g>
</svg>
