<?xml version="1.0" encoding="UTF-8"?>
<svg width="61px" height="57px" viewBox="0 0 61 57" version="1.1" xmlns="http://www.w3.org/2000/svg" xmlns:xlink="http://www.w3.org/1999/xlink">
    <!-- Generator: Sketch 51 (57462) - http://www.bohemiancoding.com/sketch -->
    <title>Group</title>
    <desc>Created with Sketch.</desc>
    <defs>
        <polygon id="path-1" points="0 0.104049754 60.9999572 0.104049754 60.9999572 57 0 57"></polygon>
    </defs>
    <g id="Page-1" stroke="none" stroke-width="1" fill="none" fill-rule="evenodd">
        <g id="adhara_single_page_final_1366px" transform="translate(-742.000000, -2037.000000)">
            <g id="Group-5" transform="translate(438.000000, 2036.000000)">
                <g id="Group" transform="translate(304.000000, 1.000000)">
                    <g id="Group-3">
                        <mask id="mask-2" fill="white">
                            <use xlink:href="#path-1"></use>
                        </mask>
                        <g id="Clip-2"></g>
                        <path d="M55.8739239,54.6861972 L46.3907782,54.6861972 L46.3907782,10.1023215 L55.8739239,12.9251633 L55.8739239,54.6861972 Z M44.0840151,54.6861972 L39.7269028,54.6861972 L39.7269028,10.8479373 L44.0840151,9.90695424 L44.0840151,54.6861972 Z M37.6764467,54.6861972 L24.3486958,54.6861972 L24.3486958,2.54407853 C24.3486958,2.51058701 24.3462344,2.4797791 24.343666,2.44639492 L37.6764467,6.16899944 L37.6764467,54.6861972 Z M22.0420396,54.6861972 L5.89491158,54.6861972 L5.89491158,6.22546271 L22.0420396,2.77282994 L22.0420396,54.6861972 Z M58.180687,54.6861972 L58.180687,12.0974288 C58.180687,11.6064345 57.8500028,11.1743723 57.3809449,11.0355757 L45.4372519,7.49556441 C45.2603519,7.44146271 45.0733923,7.43641751 44.8912484,7.47484689 L39.7269028,8.58564915 L39.7269028,5.32827627 C39.7269028,4.83212938 39.4064923,4.39502203 38.9297291,4.26127062 L24.2640449,0.145462712 C24.0898204,0.096620904 23.8976168,0.0914683616 23.7233923,0.127428814 L4.50828526,4.24592034 C3.99834667,4.35401638 3.58814842,4.80636667 3.58814842,5.32827627 L3.58814842,54.6861972 L-4.28070175e-05,54.6861972 L-4.28070175e-05,57.0000107 L60.9999572,57.0000107 L60.9999572,54.6861972 L58.180687,54.6861972 Z" id="Fill-1" fill="#FFFFFF" mask="url(#mask-2)"></path>
                    </g>
                    <path d="M53.2676056,42.9159639 L53.2676056,44.9090909 C53.2676056,44.9090909 49.0371111,44.4539085 48.971831,44.4332707 L48.971831,42.3205408 C49.1071334,42.2745618 53.2676056,42.9159639 53.2676056,42.9159639" id="Fill-4" fill="#FFFFFF"></path>
                    <path d="M53.2497268,23.3174974 L53.2497268,25.9090909 C53.1849194,25.9004338 53.3124243,25.8803542 53.2497268,25.854383 L48.971831,24.1929448 L48.971831,21.5935358 C49.1764015,21.5128566 53.2497268,23.3174974 53.2497268,23.3174974" id="Fill-6" fill="#FFFFFF"></path>
                    <path d="M8.60250122,17.3999562 L12.8873239,16.4090909 L12.8873239,19.0316199 C12.8873239,19.0316199 8.72468528,19.9038143 8.60250122,19.8621927 L8.60250122,17.429562 C8.64027383,17.4176702 8.56460715,17.4087513 8.60250122,17.3999562" id="Fill-8" fill="#FFFFFF"></path>
                    <path d="M18.0422535,15.5454545 L18.0422535,17.9404312 L13.7464789,19 L13.7464789,16.5859803 C13.7464789,16.5859803 17.9814682,15.5480772 18.0422535,15.5454545" id="Fill-10" fill="#FFFFFF"></path>
                    <path d="M8.59750733,10.5525224 L12.8873239,9.5 L12.8873239,11.8497178 C12.8873239,11.8497178 8.72263053,12.99299 8.59750733,12.9535479 L8.59750733,10.5708701 C8.61781401,10.5629597 8.57695746,10.557796 8.59750733,10.5525224" id="Fill-12" fill="#FFFFFF"></path>
                    <path d="M18.0422535,6.90909091 L18.0422535,9.17948181 L13.7464789,10.3636364 L13.7464789,8.0648696 C13.7464789,8.0648696 17.9662455,6.90909091 18.0422535,6.90909091" id="Fill-14" fill="#FFFFFF"></path>
                    <path d="M8.60612117,24.8529378 L12.8873239,24.1818182 L12.8873239,26.2088498 C12.8873239,26.2088498 8.72820201,26.8038065 8.60612117,26.7714541 L8.60612117,24.882883 C8.65259927,24.8714249 8.55673061,24.8597742 8.60612117,24.8529378" id="Fill-16" fill="#FFFFFF"></path>
                    <path d="M18.0422535,23.3181818 L18.0422535,25.8051836 L13.7464789,26.7727273 L13.7464789,24.2714672 C13.7464789,24.2714672 17.991511,23.3181818 18.0422535,23.3181818" id="Fill-18" fill="#FFFFFF"></path>
                    <path d="M53.2676056,16.6105048 L53.2676056,19 C53.1831552,18.992023 48.971831,17.1600439 48.971831,17.1600439 L48.971831,14.6818182 C49.0120887,14.7254185 53.2676056,16.6105048 53.2676056,16.6105048" id="Fill-20" fill="#FFFFFF"></path>
                    <path d="M53.2515718,30.1780354 L53.2515718,32.8181818 C53.1963038,32.8091908 53.3070409,32.7945343 53.2515718,32.7739659 L48.9732234,31.2223441 C48.9684,31.2195113 48.9780468,31.2195113 48.9732234,31.2164322 L48.9732234,28.5026337 C49.1682693,28.4229465 53.2515718,30.1780354 53.2515718,30.1780354" id="Fill-22" fill="#FFFFFF"></path>
                    <path d="M30.9295775,32.278326 L30.9295775,34.5454545 C30.9295775,34.5454545 27.5477769,34.1385871 27.4929577,34.1255151 L27.4929577,31.9575162 C27.6488611,31.918409 30.9295775,32.278326 30.9295775,32.278326" id="Fill-24" fill="#FFFFFF"></path>
                    <polygon id="Fill-26" fill="#FFFFFF" points="34.3661972 33.1860559 34.3661972 35.4090909 31.7887324 35.0411101 31.7887324 32.8181818"></polygon>
                    <path d="M30.9295775,47.5643436 L30.9295775,49.2272727 C30.9295775,49.2272727 27.5823552,49.1174513 27.4929577,49.1001535 L27.4929577,47.5046458 C27.6170539,47.4795438 30.9295775,47.5643436 30.9295775,47.5643436" id="Fill-28" fill="#FFFFFF"></path>
                    <polygon id="Fill-30" fill="#FFFFFF" points="34.3661972 47.5946299 34.3661972 49.2272727 31.7887324 49.1326428 31.7887324 47.5"></polygon>
                    <path d="M53.2676056,36.621917 L53.2676056,38.8636308 C53.2537885,38.8663881 49.0039749,37.8367604 48.971831,37.8234992 L48.971831,35.4113835 C49.1326467,35.3479504 53.2676056,36.621917 53.2676056,36.621917" id="Fill-32" fill="#FFFFFF"></path>
                    <path d="M53.2676056,50.3176127 L53.2676056,52.6818182 C53.2676056,52.6818182 49.0516402,52.3750251 48.971831,52.3420809 L48.971831,50.0958111 C49.0927051,50.0518855 53.2676056,50.3176127 53.2676056,50.3176127" id="Fill-34" fill="#FFFFFF"></path>
                    <path d="M30.9295775,16.432248 L30.9295775,19 L27.4929577,18.0521745 L27.4929577,15.5482265 C27.7035597,15.4879005 30.9295775,16.432248 30.9295775,16.432248" id="Fill-36" fill="#FFFFFF"></path>
                    <polygon id="Fill-38" fill="#FFFFFF" points="34.3661972 17.2834214 34.3661972 19.8636364 31.7887324 18.9890648 31.7887324 16.4090909"></polygon>
                    <path d="M30.9295775,7.91184101 L30.9295775,10.3636364 L27.4929577,9.38553438 L27.4929577,6.91133107 C27.7123549,6.85411682 30.9295775,7.91184101 30.9295775,7.91184101" id="Fill-40" fill="#FFFFFF"></path>
                    <polygon id="Fill-42" fill="#FFFFFF" points="34.3661972 9.56381983 34.3661972 12.0909091 31.7887324 11.1632182 31.7887324 8.63636364"></polygon>
                    <path d="M30.9295775,24.1893497 L30.9295775,26.7727273 L27.5012375,26.0712008 C27.4725117,26.0651944 27.5300834,26.0593106 27.5012375,26.0504848 L27.5012375,23.3203787 C27.6854909,23.2674241 30.9295775,24.1893497 30.9295775,24.1893497" id="Fill-44" fill="#FFFFFF"></path>
                    <polygon id="Fill-46" fill="#FFFFFF" points="34.3661972 24.7073494 34.3661972 26.7727273 31.7887324 26.2469021 31.7887324 24.1818182"></polygon>
                    <path d="M30.9295775,39.9448939 L30.9295775,42.3181818 C30.9295775,42.3181818 27.5622347,42.0221645 27.4929577,42.0029411 L27.4929577,39.7312625 C27.6342828,39.6928157 30.9295775,39.9448939 30.9295775,39.9448939" id="Fill-48" fill="#FFFFFF"></path>
                    <polygon id="Fill-50" fill="#FFFFFF" points="34.3661972 40.8594058 34.3661972 43.1818182 31.7887324 42.9161242 31.7887324 40.5909091"></polygon>
                    <path d="M12.028169,40.5909091 L12.028169,42.9513414 C12.028169,42.9513414 8.6896438,43.2164509 8.5915493,43.1780077 L8.5915493,40.9405478 C8.66616736,40.9105462 12.028169,40.5909091 12.028169,40.5909091" id="Fill-52" fill="#FFFFFF"></path>
                    <path d="M18.04011,39.728432 L18.04011,41.9746425 L13.7464789,42.3181818 L13.7464789,40.069363 L18.04011,39.728432 C18.0476119,39.728432 18.0323968,39.7258237 18.04011,39.728432" id="Fill-54" fill="#FFFFFF"></path>
                    <path d="M12.028169,32.8181818 L12.028169,34.9985534 C12.028169,34.9985534 8.60645343,35.461199 8.5915493,35.4042307 L8.5915493,33.3538932 C8.64756155,33.3339282 12.028169,32.8181818 12.028169,32.8181818" id="Fill-56" fill="#FFFFFF"></path>
                    <path d="M18.0335241,31.9545455 L18.0335241,33.9934753 L13.7464789,34.5454545 L13.7464789,32.501817 L18.0335241,31.961607 C18.0638022,31.9568012 18.0031405,31.9545455 18.0335241,31.9545455" id="Fill-58" fill="#FFFFFF"></path>
                    <path d="M8.63234001,47.6455067 L12.8873239,47.5 L12.8873239,49.9140441 L8.63234001,50.0909091 C8.49653367,50.0909091 8.75367321,50.0648676 8.63234001,50.0207056 L8.63234001,47.7078977 C8.73920006,47.6714397 8.51390144,47.650715 8.63234001,47.6455067" id="Fill-60" fill="#FFFFFF"></path>
                    <polygon id="Fill-62" fill="#FFFFFF" points="18.0422535 47.5 18.0422535 49.8664936 13.7464789 50.0909091 13.7464789 47.6799681"></polygon>
                </g>
            </g>
        </g>
    </g>
</svg>