<?xml version="1.0" encoding="utf-8"?>
<!-- Generator: Adobe Illustrator 21.0.0, SVG Export Plug-In . SVG Version: 6.00 Build 0)  -->
<svg version="1.1" id="Layer_1" xmlns="http://www.w3.org/2000/svg" xmlns:xlink="http://www.w3.org/1999/xlink" x="0px" y="0px"
	 viewBox="0 0 90 90" style="enable-background:new 0 0 90 90;" xml:space="preserve">
<style type="text/css">
	.st0{fill:#421492;}
</style>
<title>Fill 1</title>
<desc>Created with Sketch.</desc>
<g id="Page-1">
	<g id="adhara_single_page_final_1366px" transform="translate(-886.000000, -1447.000000)">
		<g id="Our-products" transform="translate(217.000000, 1239.000000)">
			<path id="Fill-1" class="st0" d="M736.9,257.8h-2.1c-0.6,0-1.1,0.5-1.1,1.1c0,0.6,0.5,1.1,1.1,1.1h1.6c-0.9,2.7-2.2,5.2-3.9,7.4
				c-1.7-1-3.6-1.8-5.7-2.5c1-3.3,1.5-7,1.6-11h6.4c0,0,0,0,0,0h2.7C737.3,255.2,737.2,256.5,736.9,257.8z M721,275.3
				c2-2,3.7-4.9,5-8.3c1.8,0.6,3.5,1.3,4.9,2.1C728.2,271.9,724.8,274,721,275.3z M696.7,269c1.5-0.8,3.1-1.5,4.9-2.1
				c1.3,3.4,3,6.3,5,8.3C702.8,274,699.4,271.9,696.7,269z M692.9,257.8h-2.2c-0.3-1.3-0.5-2.6-0.5-3.9h2.7c0,0,0,0,0,0h6.4
				c0.1,4,0.7,7.7,1.6,11c-2.1,0.7-4,1.5-5.7,2.5c-1.7-2.2-3.1-4.7-3.9-7.4h1.6c0.6,0,1.1-0.5,1.1-1.1
				C694,258.3,693.5,257.8,692.9,257.8z M672.2,253.3c-0.3,0-0.5-0.2-0.5-0.5c0-0.3,0.2-0.5,0.5-0.5c0.3,0,0.5,0.2,0.5,0.5
				C672.7,253.1,672.5,253.3,672.2,253.3z M692.9,245.6h-1.6c0.9-2.7,2.2-5.2,3.9-7.4c1.7,1,3.6,1.8,5.7,2.5c-1,3.3-1.5,7-1.6,11
				h-9.1c0.1-1.3,0.2-2.7,0.5-3.9h2.2c0.6,0,1.1-0.5,1.1-1.1C694,246.1,693.5,245.6,692.9,245.6z M706.6,230.3c-2,2-3.7,4.9-5,8.3
				c-1.8-0.6-3.5-1.3-4.9-2.1C699.4,233.7,702.8,231.5,706.6,230.3z M730.9,236.5c-1.5,0.8-3.1,1.5-4.9,2.1c-1.3-3.4-3-6.3-5-8.3
				C724.8,231.5,728.2,233.7,730.9,236.5z M714.9,251.7v-9.1c3.3-0.1,6.6-0.5,9.6-1.3c0.9,3.1,1.5,6.7,1.6,10.4H714.9z M724.5,264.3
				c-3-0.8-6.3-1.2-9.6-1.3v-9.2h11.2C726,257.6,725.5,261.2,724.5,264.3z M714.9,276.3v-11.1c3.1,0.1,6.1,0.5,8.9,1.1
				C721.8,271.8,718.5,275.7,714.9,276.3z M712.7,265.2v11.1c-3.6-0.6-6.9-4.5-8.9-9.9C706.6,265.7,709.6,265.3,712.7,265.2z
				 M712.7,253.9v9.2c-3.3,0.1-6.6,0.5-9.6,1.3c-0.9-3.1-1.5-6.7-1.6-10.4H712.7z M703.1,241.3c3,0.8,6.3,1.2,9.6,1.3v9.1h-11.2
				C701.6,247.9,702.2,244.4,703.1,241.3z M712.7,229.3v11.1c-3.1-0.1-6.1-0.5-8.9-1.1C705.9,233.7,709.1,229.9,712.7,229.3z
				 M723.8,239.2c-2.8,0.7-5.8,1.1-8.9,1.1v-11.1C718.5,229.9,721.8,233.7,723.8,239.2z M734.7,247.7h2.2c0.3,1.3,0.5,2.6,0.5,3.9
				h-9.1c-0.1-4-0.7-7.7-1.6-11c2.1-0.7,4-1.5,5.7-2.5c1.7,2.2,3.1,4.7,3.9,7.4h-1.6c-0.6,0-1.1,0.5-1.1,1.1
				C733.6,247.3,734.1,247.7,734.7,247.7z M755.4,252.3c0.3,0,0.5,0.2,0.5,0.5c0,0.3-0.2,0.5-0.5,0.5c-0.3,0-0.5-0.2-0.5-0.5
				C754.9,252.5,755.1,252.3,755.4,252.3z M755.4,263.7c0.3,0,0.5,0.2,0.5,0.5s-0.2,0.5-0.5,0.5c-0.3,0-0.5-0.2-0.5-0.5
				S755.1,263.7,755.4,263.7z M672.2,264.7c-0.3,0-0.5-0.2-0.5-0.5s0.2-0.5,0.5-0.5c0.3,0,0.5,0.2,0.5,0.5S672.5,264.7,672.2,264.7z
				 M672.2,241.8c-0.3,0-0.5-0.2-0.5-0.5c0-0.3,0.2-0.5,0.5-0.5c0.3,0,0.5,0.2,0.5,0.5C672.7,241.6,672.5,241.8,672.2,241.8z
				 M755.4,240.8c0.3,0,0.5,0.2,0.5,0.5c0,0.3-0.2,0.5-0.5,0.5c-0.3,0-0.5-0.2-0.5-0.5C754.9,241.1,755.1,240.8,755.4,240.8z
				 M752.9,253.9c0.4,0.9,1.3,1.6,2.4,1.6c1.5,0,2.7-1.2,2.7-2.7c0-1.5-1.2-2.7-2.7-2.7c-1.1,0-2,0.7-2.4,1.6h-13.4
				c-0.1-1.3-0.2-2.7-0.5-3.9h5.2c0.2,0,0.3,0,0.5-0.1l9-4.2c0.5,0.4,1,0.6,1.7,0.6c1.5,0,2.7-1.2,2.7-2.7c0-1.5-1.2-2.7-2.7-2.7
				c-1.5,0-2.7,1.2-2.7,2.7c0,0,0,0.1,0,0.1l-8.7,4.1h-5.5c-3.1-10.7-13-18.6-24.8-18.6c-11.7,0-21.6,7.9-24.8,18.6h-5.5l-8.7-4.1
				c0,0,0-0.1,0-0.1c0-1.5-1.2-2.7-2.7-2.7s-2.7,1.2-2.7,2.7c0,1.5,1.2,2.7,2.7,2.7c0.6,0,1.2-0.2,1.7-0.6l9,4.2
				c0.1,0.1,0.3,0.1,0.5,0.1h5.2c-0.3,1.3-0.4,2.6-0.5,3.9h-13.4c-0.4-0.9-1.3-1.6-2.4-1.6c-1.5,0-2.7,1.2-2.7,2.7
				c0,1.5,1.2,2.7,2.7,2.7c1.1,0,2-0.7,2.4-1.6h13.4c0.1,1.3,0.2,2.7,0.5,3.9h-5.2c-0.2,0-0.3,0-0.5,0.1l-9,4.2
				c-0.5-0.4-1-0.6-1.7-0.6c-1.5,0-2.7,1.2-2.7,2.7s1.2,2.7,2.7,2.7s2.7-1.2,2.7-2.7c0,0,0-0.1,0-0.1l8.7-4.1h5.5
				c1,3.5,2.8,6.7,5.1,9.4c0,0.1,0.1,0.1,0.2,0.2c4.7,5.5,11.7,9,19.5,9c7.9,0,15-3.6,19.7-9.2l0,0c2.3-2.7,4-5.9,5-9.4h5.5l8.7,4.1
				c0,0,0,0.1,0,0.1c0,1.5,1.2,2.7,2.7,2.7c1.5,0,2.7-1.2,2.7-2.7s-1.2-2.7-2.7-2.7c-0.6,0-1.2,0.2-1.7,0.6l-9-4.2
				c-0.1-0.1-0.3-0.1-0.5-0.1h-5.2c0.3-1.3,0.4-2.6,0.5-3.9H752.9z"/>
		</g>
	</g>
</g>
</svg>
