<?xml version="1.0" encoding="UTF-8"?>
<svg width="90px" height="52px" viewBox="0 0 90 52" version="1.1" xmlns="http://www.w3.org/2000/svg" xmlns:xlink="http://www.w3.org/1999/xlink">
    <!-- Generator: Sketch 51 (57462) - http://www.bohemiancoding.com/sketch -->
    <title>Fill 1</title>
    <desc>Created with Sketch.</desc>
    <defs></defs>
    <g id="Page-1" stroke="none" stroke-width="1" fill="none" fill-rule="evenodd">
        <g id="adhara_single_page_final_1366px" transform="translate(-886.000000, -1447.000000)" fill="#421492">
            <g id="Our-products" transform="translate(217.000000, 1239.000000)">
                <path d="M736.876407,238.815614 L734.726632,238.815614 C734.127123,238.815614 733.642529,239.300208 733.642529,239.899717 C733.642529,240.499225 734.127123,240.983819 734.726632,240.983819 L736.295328,240.983819 C735.42371,243.694076 734.075086,246.190764 732.349195,248.377398 C730.667752,247.400622 728.765152,246.569115 726.661993,245.894804 C727.629013,242.599132 728.206839,238.862231 728.295736,234.86406 L734.715791,234.86406 C734.719043,234.86406 734.722296,234.866229 734.726632,234.866229 L737.395692,234.866229 C737.333899,236.215936 737.156106,237.534205 736.876407,238.815614 Z M720.996474,256.270749 C723.021577,254.255402 724.731207,251.402044 725.986597,247.954598 C727.79488,248.533509 729.442716,249.230587 730.903002,250.044748 C728.203587,252.88076 724.81143,255.048965 720.996474,256.270749 Z M696.716914,250.044748 C698.178284,249.230587 699.825035,248.532425 701.634403,247.953514 C702.889793,251.402044 704.600507,254.255402 706.625611,256.270749 C702.80957,255.048965 699.416329,252.88076 696.716914,250.044748 Z M692.895452,238.815614 L690.743509,238.815614 C690.46381,237.534205 690.287101,236.215936 690.226392,234.866229 L692.895452,234.866229 C692.898704,234.866229 692.901957,234.86406 692.905209,234.86406 L699.325264,234.86406 C699.414161,238.862231 699.993071,242.598048 700.959007,245.894804 C698.856932,246.569115 696.953248,247.400622 695.271805,248.378482 C693.545914,246.190764 692.196206,243.694076 691.325672,240.983819 L692.895452,240.983819 C693.492793,240.983819 693.979555,240.499225 693.979555,239.899717 C693.979555,239.300208 693.492793,238.815614 692.895452,238.815614 Z M672.238963,234.28515 C671.961432,234.28515 671.735939,234.059656 671.735939,233.782126 C671.735939,233.50568 671.961432,233.280187 672.238963,233.280187 C672.515409,233.280187 672.740902,233.50568 672.740902,233.782126 C672.740902,234.059656 672.515409,234.28515 672.238963,234.28515 Z M692.895452,226.581517 L691.323503,226.581517 C692.195122,223.869093 693.54483,221.37132 695.271805,219.182518 C696.954332,220.160378 698.858016,220.991885 700.959007,221.666196 C699.993071,224.962952 699.414161,228.697685 699.325264,232.695855 L690.226392,232.695855 C690.287101,231.348316 690.46381,230.030047 690.742425,228.749722 L692.895452,228.749722 C693.492793,228.749722 693.979555,228.265128 693.979555,227.66562 C693.979555,227.067195 693.492793,226.581517 692.895452,226.581517 Z M706.625611,211.290251 C704.600507,213.305598 702.889793,216.158956 701.634403,219.607486 C699.82612,219.028575 698.179368,218.330413 696.716914,217.517336 C699.416329,214.68024 702.80957,212.512035 706.625611,211.290251 Z M730.903002,217.516252 C729.442716,218.330413 727.79488,219.027491 725.986597,219.606402 C724.731207,216.158956 723.021577,213.305598 720.996474,211.290251 C724.81143,212.512035 728.203587,214.68024 730.903002,217.516252 Z M714.895145,232.695855 L714.895145,223.549282 C718.222255,223.470143 721.499497,223.034334 724.518723,222.270041 C725.456471,225.398761 726.033214,228.948113 726.127531,232.695855 L714.895145,232.695855 Z M724.517639,245.292043 C721.499497,244.532087 718.219003,244.114707 714.895145,244.039904 L714.895145,234.86406 L726.127531,234.86406 C726.033214,238.612887 725.456471,242.163323 724.517639,245.292043 Z M714.895145,257.290889 L714.895145,246.205941 C717.979416,246.278576 721.021408,246.662348 723.823813,247.35509 C721.766186,252.839564 718.529056,256.651269 714.895145,257.290889 Z M712.72694,246.205941 L712.72694,257.290889 C709.091944,256.651269 705.855898,252.839564 703.797187,247.354006 C706.598508,246.662348 709.641584,246.278576 712.72694,246.205941 Z M712.72694,234.86406 L712.72694,244.039904 C709.401997,244.115791 706.120419,244.532087 703.104446,245.293127 C702.164529,242.163323 701.587786,238.612887 701.493469,234.86406 L712.72694,234.86406 Z M703.103361,222.270041 C706.121503,223.034334 709.398745,223.470143 712.72694,223.549282 L712.72694,232.695855 L701.493469,232.695855 C701.587786,228.948113 702.164529,225.398761 703.103361,222.270041 Z M712.72694,210.269027 L712.72694,221.355059 C709.642668,221.282424 706.600676,220.898652 703.797187,220.20591 C705.855898,214.721436 709.091944,210.909731 712.72694,210.269027 Z M723.823813,220.20591 C721.01924,220.898652 717.977248,221.282424 714.895145,221.355059 L714.895145,210.269027 C718.529056,210.909731 721.766186,214.721436 723.823813,220.20591 Z M734.726632,228.749722 L736.877491,228.749722 C737.15719,230.030047 737.333899,231.348316 737.395692,232.695855 L728.295736,232.695855 C728.206839,228.697685 727.629013,224.961868 726.661993,221.665112 C728.762984,220.991885 730.665584,220.160378 732.348111,219.182518 C734.07617,221.37132 735.425878,223.869093 736.296412,226.581517 L734.726632,226.581517 C734.127123,226.581517 733.642529,227.067195 733.642529,227.66562 C733.642529,228.265128 734.127123,228.749722 734.726632,228.749722 Z M755.382037,233.280187 C755.659568,233.280187 755.885061,233.50568 755.885061,233.782126 C755.885061,234.059656 755.659568,234.28515 755.382037,234.28515 C755.105591,234.28515 754.880098,234.059656 754.880098,233.782126 C754.880098,233.50568 755.105591,233.280187 755.382037,233.280187 Z M755.382037,244.686029 C755.659568,244.686029 755.885061,244.911523 755.885061,245.189053 C755.885061,245.466583 755.659568,245.692076 755.382037,245.692076 C755.105591,245.692076 754.880098,245.466583 754.880098,245.189053 C754.880098,244.911523 755.105591,244.686029 755.382037,244.686029 Z M672.238963,245.692076 C671.961432,245.692076 671.735939,245.466583 671.735939,245.189053 C671.735939,244.911523 671.961432,244.686029 672.238963,244.686029 C672.515409,244.686029 672.740902,244.911523 672.740902,245.189053 C672.740902,245.466583 672.515409,245.692076 672.238963,245.692076 Z M672.238963,222.847868 C671.961432,222.847868 671.735939,222.622375 671.735939,222.345929 C671.735939,222.068398 671.961432,221.842905 672.238963,221.842905 C672.515409,221.842905 672.740902,222.068398 672.740902,222.345929 C672.740902,222.622375 672.515409,222.847868 672.238963,222.847868 Z M755.382037,221.842905 C755.659568,221.842905 755.885061,222.068398 755.885061,222.345929 C755.885061,222.622375 755.659568,222.847868 755.382037,222.847868 C755.105591,222.847868 754.880098,222.622375 754.880098,222.345929 C754.880098,222.068398 755.105591,221.842905 755.382037,221.842905 Z M752.946059,234.866229 C753.363438,235.799641 754.295767,236.453355 755.382037,236.453355 C756.855333,236.453355 758.053266,235.255421 758.053266,233.782126 C758.053266,232.309915 756.855333,231.111982 755.382037,231.111982 C754.295767,231.111982 753.363438,231.765695 752.947143,232.698024 L739.563897,232.698024 C739.507524,231.353737 739.349245,230.034384 739.094481,228.749722 L744.261314,228.749722 C744.420677,228.749722 744.577872,228.715031 744.722057,228.646733 L753.712519,224.413312 C754.171095,224.784075 754.746753,225.016073 755.382037,225.016073 C756.855333,225.016073 758.053266,223.81814 758.053266,222.345929 C758.053266,220.872633 756.855333,219.6747 755.382037,219.6747 C753.909826,219.6747 752.711893,220.872633 752.711893,222.345929 C752.711893,222.392545 752.722734,222.435909 752.725986,222.481441 L744.018475,226.581517 L738.561103,226.581517 C735.436719,215.859743 725.526938,208 713.811042,208 C702.094062,208 692.184281,215.859743 689.060981,226.581517 L683.601441,226.581517 L674.895014,222.481441 C674.898266,222.435909 674.909107,222.392545 674.909107,222.345929 C674.909107,220.872633 673.711174,219.6747 672.238963,219.6747 C670.766751,219.6747 669.567734,220.872633 669.567734,222.345929 C669.567734,223.81814 670.766751,225.016073 672.238963,225.016073 C672.873163,225.016073 673.448821,224.784075 673.908481,224.413312 L682.897859,228.646733 C683.042044,228.715031 683.199239,228.749722 683.359686,228.749722 L688.526519,228.749722 C688.271755,230.034384 688.113476,231.353737 688.058187,232.698024 L674.673857,232.698024 C674.257562,231.765695 673.325233,231.111982 672.238963,231.111982 C670.766751,231.111982 669.567734,232.309915 669.567734,233.782126 C669.567734,235.255421 670.766751,236.453355 672.238963,236.453355 C673.325233,236.453355 674.257562,235.799641 674.673857,234.866229 L688.058187,234.866229 C688.11456,236.2116 688.271755,237.530953 688.526519,238.815614 L683.359686,238.815614 C683.199239,238.815614 683.042044,238.850305 682.897859,238.919688 L673.932331,243.141183 C673.470503,242.757411 672.885088,242.517824 672.238963,242.517824 C670.766751,242.517824 669.567734,243.716842 669.567734,245.189053 C669.567734,246.661264 670.766751,247.860281 672.238963,247.860281 C673.711174,247.860281 674.909107,246.661264 674.909107,245.189053 C674.909107,245.152193 674.89935,245.118586 674.898266,245.081727 L683.601441,240.983819 L689.062066,240.983819 C690.084374,244.488723 691.828695,247.687909 694.128077,250.40467 C694.176861,250.474053 694.229982,250.538015 694.289608,250.591136 C699.020631,256.077779 706.014177,259.561 713.811042,259.561 C721.711981,259.561 728.791171,255.983462 733.523278,250.368895 L733.524362,250.367811 C735.808566,247.657554 737.540962,244.472461 738.558934,240.983819 L744.018475,240.983819 L752.722734,245.081727 C752.72165,245.118586 752.711893,245.152193 752.711893,245.189053 C752.711893,246.661264 753.909826,247.860281 755.382037,247.860281 C756.855333,247.860281 758.053266,246.661264 758.053266,245.189053 C758.053266,243.716842 756.855333,242.517824 755.382037,242.517824 C754.735912,242.517824 754.151581,242.757411 753.688669,243.141183 L744.722057,238.919688 C744.577872,238.850305 744.420677,238.815614 744.261314,238.815614 L739.093397,238.815614 C739.348161,237.530953 739.507524,236.2116 739.563897,234.866229 L752.946059,234.866229 Z" id="Fill-1"></path>
            </g>
        </g>
    </g>
</svg>