<?xml version="1.0" encoding="UTF-8"?>
<svg width="83px" height="59px" viewBox="0 0 83 59" version="1.1" xmlns="http://www.w3.org/2000/svg" xmlns:xlink="http://www.w3.org/1999/xlink">
    <!-- Generator: Sketch 51 (57462) - http://www.bohemiancoding.com/sketch -->
    <title>Group 5</title>
    <desc>Created with Sketch.</desc>
    <defs></defs>
    <g id="Page-1" stroke="none" stroke-width="1" fill="none" fill-rule="evenodd">
        <g id="adhara_single_page_final_1366px" transform="translate(-1283.000000, -1437.000000)" fill="#421492">
            <g id="Our-products" transform="translate(217.000000, 1239.000000)">
                <g id="Group-5" transform="translate(1066.000000, 198.000000)">
                    <path d="M61.0381,47.0593 L57.3391,47.0593 C56.7861,47.0593 56.3391,47.5063 56.3391,48.0593 C56.3391,48.6123 56.7861,49.0593 57.3391,49.0593 L61.0391,49.0593 L61.0391,56.9993 L21.3051,56.9993 L21.3051,49.0593 L25.0031,49.0593 C25.5561,49.0593 26.0031,48.6123 26.0031,48.0593 C26.0031,47.5063 25.5561,47.0593 25.0031,47.0593 L21.3051,47.0593 L21.3051,42.4583 L25.0031,42.4583 C25.5561,42.4583 26.0031,42.0113 26.0031,41.4583 C26.0031,40.9063 25.5561,40.4583 25.0031,40.4583 L21.3051,40.4583 L21.3051,35.8573 L25.0031,35.8573 C25.5561,35.8573 26.0031,35.4103 26.0031,34.8573 C26.0031,34.3043 25.5561,33.8573 25.0031,33.8573 L21.3051,33.8573 L21.3051,24.5603 L23.5791,24.5603 C23.5901,24.5603 23.6001,24.5673 23.6121,24.5673 C23.6241,24.5673 23.6341,24.5603 23.6461,24.5603 L58.7001,24.5603 C58.7121,24.5603 58.7231,24.5673 58.7341,24.5673 C58.7461,24.5673 58.7561,24.5603 58.7681,24.5603 L61.0371,24.5603 L61.0381,33.8573 L57.3391,33.8573 C56.7861,33.8573 56.3391,34.3043 56.3391,34.8573 C56.3391,35.4103 56.7861,35.8573 57.3391,35.8573 L61.0381,35.8573 L61.0381,40.4583 L57.3391,40.4583 C56.7861,40.4583 56.3391,40.9063 56.3391,41.4583 C56.3391,42.0113 56.7861,42.4583 57.3391,42.4583 L61.0381,42.4583 L61.0381,47.0593 Z M41.1731,2.3023 C50.0401,2.3023 57.2811,11.3033 57.6941,22.5603 L24.6521,22.5603 C25.0651,11.3033 32.3061,2.3023 41.1731,2.3023 Z M79.6301,53.0553 C80.0221,53.0553 80.3421,53.3743 80.3421,53.7673 C80.3421,54.1603 80.0221,54.4793 79.6301,54.4793 C79.2371,54.4793 78.9181,54.1603 78.9181,53.7673 C78.9181,53.3743 79.2371,53.0553 79.6301,53.0553 Z M2.7121,54.4793 C2.3201,54.4793 2.0001,54.1603 2.0001,53.7673 C2.0001,53.3743 2.3201,53.0553 2.7121,53.0553 C3.1051,53.0553 3.4241,53.3743 3.4241,53.7673 C3.4241,54.1603 3.1051,54.4793 2.7121,54.4793 Z M2.7121,42.1703 C2.3201,42.1703 2.0001,41.8513 2.0001,41.4583 C2.0001,41.0663 2.3201,40.7473 2.7121,40.7473 C3.1051,40.7473 3.4241,41.0663 3.4241,41.4583 C3.4241,41.8513 3.1051,42.1703 2.7121,42.1703 Z M2.7121,29.8283 C2.3201,29.8283 2.0001,29.5083 2.0001,29.1173 C2.0001,28.7243 2.3201,28.4043 2.7121,28.4043 C3.1051,28.4043 3.4241,28.7243 3.4241,29.1173 C3.4241,29.5083 3.1051,29.8283 2.7121,29.8283 Z M79.6301,28.4043 C80.0221,28.4043 80.3421,28.7243 80.3421,29.1173 C80.3421,29.5083 80.0221,29.8283 79.6301,29.8283 C79.2371,29.8283 78.9181,29.5083 78.9181,29.1173 C78.9181,28.7243 79.2371,28.4043 79.6301,28.4043 Z M79.6301,40.7473 C80.0221,40.7473 80.3421,41.0663 80.3421,41.4583 C80.3421,41.8513 80.0221,42.1703 79.6301,42.1703 C79.2371,42.1703 78.9181,41.8513 78.9181,41.4583 C78.9181,41.0663 79.2371,40.7473 79.6301,40.7473 Z M77.1141,42.4583 C77.5141,43.4593 78.4881,44.1703 79.6301,44.1703 C81.1251,44.1703 82.3421,42.9543 82.3421,41.4583 C82.3421,39.9633 81.1251,38.7463 79.6301,38.7463 C78.4881,38.7463 77.5141,39.4583 77.1141,40.4583 L63.0371,40.4583 L63.0371,35.8573 L67.6281,35.8573 C67.7751,35.8573 67.9211,35.8253 68.0541,35.7613 L77.8521,31.1483 C78.3301,31.5663 78.9471,31.8283 79.6301,31.8283 C81.1251,31.8283 82.3421,30.6123 82.3421,29.1173 C82.3421,27.6213 81.1251,26.4043 79.6301,26.4043 C78.1351,26.4043 76.9181,27.6213 76.9181,29.1173 C76.9181,29.2023 76.9351,29.2833 76.9431,29.3663 L67.4041,33.8573 L63.0371,33.8573 L63.0371,24.5603 C63.0371,23.4563 62.1401,22.5603 61.0371,22.5603 L59.7141,22.5603 C59.2921,10.1983 51.1391,0.3023 41.1731,0.3023 C31.2081,0.3023 23.0551,10.1983 22.6331,22.5603 L21.3051,22.5603 C20.2021,22.5603 19.3051,23.4563 19.3051,24.5603 L19.3051,33.8573 L14.9371,33.8573 L5.3991,29.3663 C5.4071,29.2833 5.4241,29.2023 5.4241,29.1173 C5.4241,27.6213 4.2071,26.4043 2.7121,26.4043 C1.2171,26.4043 0.0001,27.6213 0.0001,29.1173 C0.0001,30.6123 1.2171,31.8283 2.7121,31.8283 C3.3951,31.8283 4.0121,31.5663 4.4901,31.1483 L14.2881,35.7613 C14.4211,35.8253 14.5661,35.8573 14.7141,35.8573 L19.3051,35.8573 L19.3051,40.4583 L5.2281,40.4583 C4.8281,39.4583 3.8541,38.7463 2.7121,38.7463 C1.2171,38.7463 0.0001,39.9633 0.0001,41.4583 C0.0001,42.9543 1.2171,44.1703 2.7121,44.1703 C3.8541,44.1703 4.8281,43.4593 5.2281,42.4583 L19.3051,42.4583 L19.3051,47.0593 L14.7141,47.0593 C14.5661,47.0593 14.4211,47.0913 14.2881,47.1553 L4.5161,51.7573 C4.0351,51.3263 3.4071,51.0553 2.7121,51.0553 C1.2171,51.0553 0.0001,52.2723 0.0001,53.7673 C0.0001,55.2623 1.2171,56.4793 2.7121,56.4793 C4.2071,56.4793 5.4241,55.2623 5.4241,53.7673 C5.4241,53.6933 5.4081,53.6223 5.4021,53.5493 L14.9371,49.0593 L19.3051,49.0593 L19.3051,56.9993 C19.3051,58.1023 20.2021,58.9993 21.3051,58.9993 L61.0371,58.9993 C62.1401,58.9993 63.0371,58.1023 63.0371,56.9993 L63.0371,49.0593 L67.4041,49.0593 L76.9401,53.5493 C76.9341,53.6223 76.9181,53.6933 76.9181,53.7673 C76.9181,55.2623 78.1351,56.4793 79.6301,56.4793 C81.1251,56.4793 82.3421,55.2623 82.3421,53.7673 C82.3421,52.2723 81.1251,51.0553 79.6301,51.0553 C78.9351,51.0553 78.3071,51.3263 77.8261,51.7573 L68.0541,47.1553 C67.9211,47.0913 67.7751,47.0593 67.6281,47.0593 L63.0371,47.0593 L63.0371,42.4583 L77.1141,42.4583 Z" id="Fill-3"></path>
                    <path d="M42.8838,49.4196 L39.4478,49.4196 L39.4478,39.8896 C39.4478,39.8736 39.4398,39.8606 39.4398,39.8456 C39.4358,39.7736 39.4158,39.7086 39.3978,39.6396 C39.3828,39.5806 39.3728,39.5226 39.3478,39.4686 C39.3228,39.4136 39.2828,39.3686 39.2478,39.3196 C39.2068,39.2616 39.1688,39.2036 39.1168,39.1556 C39.1048,39.1466 39.1008,39.1316 39.0888,39.1206 C38.3388,38.4966 37.9088,37.5836 37.9088,36.6156 C37.9088,34.8156 39.3698,33.3496 41.1658,33.3496 C42.9668,33.3496 44.4328,34.8156 44.4328,36.6156 C44.4328,37.5916 44.0008,38.5066 43.2478,39.1276 C43.2358,39.1386 43.2308,39.1526 43.2188,39.1626 C43.1648,39.2126 43.1248,39.2716 43.0828,39.3306 C43.0488,39.3786 43.0108,39.4226 42.9858,39.4756 C42.9598,39.5286 42.9498,39.5886 42.9348,39.6486 C42.9158,39.7166 42.8968,39.7826 42.8938,39.8536 C42.8928,39.8696 42.8838,39.8826 42.8838,39.8986 L42.8838,49.4196 Z M41.1658,31.3496 C38.2678,31.3496 35.9088,33.7116 35.9088,36.6156 C35.9088,38.0146 36.4668,39.3386 37.4478,40.3226 L37.4478,50.4196 C37.4478,50.9726 37.8958,51.4196 38.4478,51.4196 L43.8838,51.4196 C44.4368,51.4196 44.8838,50.9726 44.8838,50.4196 L44.8838,40.3356 C45.8718,39.3536 46.4328,38.0246 46.4328,36.6156 C46.4328,33.7116 44.0708,31.3496 41.1658,31.3496 Z" id="Fill-1"></path>
                </g>
            </g>
        </g>
    </g>
</svg>