<?xml version="1.0" encoding="utf-8"?>
<!-- Generator: Adobe Illustrator 21.0.0, SVG Export Plug-In . SVG Version: 6.00 Build 0)  -->
<svg version="1.1" id="Layer_1" xmlns="http://www.w3.org/2000/svg" xmlns:xlink="http://www.w3.org/1999/xlink" x="0px" y="0px"
	 viewBox="0 0 90 90" style="enable-background:new 0 0 90 90;" xml:space="preserve">
<style type="text/css">
	.st0{fill:#421492;}
</style>
<title>Group 5</title>
<desc>Created with Sketch.</desc>
<g id="Page-1">
	<g id="adhara_single_page_final_1366px" transform="translate(-1283.000000, -1437.000000)">
		<g id="Our-products" transform="translate(217.000000, 1239.000000)">
			<g id="Group-5" transform="translate(1066.000000, 198.000000)">
				<path id="Fill-3" class="st0" d="M64.5,50.6h-3.7c-0.6,0-1,0.4-1,1c0,0.6,0.4,1,1,1h3.7v7.9H24.8v-7.9h3.7c0.6,0,1-0.4,1-1
					c0-0.6-0.4-1-1-1h-3.7V46h3.7c0.6,0,1-0.4,1-1c0-0.6-0.4-1-1-1h-3.7v-4.6h3.7c0.6,0,1-0.4,1-1s-0.4-1-1-1h-3.7v-9.3h2.3
					c0,0,0,0,0,0c0,0,0,0,0,0h35.1c0,0,0,0,0,0c0,0,0,0,0,0h2.3l0,9.3h-3.7c-0.6,0-1,0.4-1,1s0.4,1,1,1h3.7V44h-3.7
					c-0.6,0-1,0.4-1,1c0,0.6,0.4,1,1,1h3.7V50.6z M44.7,5.8c8.9,0,16.1,9,16.5,20.3h-33C28.6,14.8,35.8,5.8,44.7,5.8z M83.1,56.6
					c0.4,0,0.7,0.3,0.7,0.7S83.5,58,83.1,58c-0.4,0-0.7-0.3-0.7-0.7S82.7,56.6,83.1,56.6z M6.2,58c-0.4,0-0.7-0.3-0.7-0.7
					s0.3-0.7,0.7-0.7c0.4,0,0.7,0.3,0.7,0.7S6.6,58,6.2,58z M6.2,45.7c-0.4,0-0.7-0.3-0.7-0.7c0-0.4,0.3-0.7,0.7-0.7
					c0.4,0,0.7,0.3,0.7,0.7C6.9,45.4,6.6,45.7,6.2,45.7z M6.2,33.3c-0.4,0-0.7-0.3-0.7-0.7c0-0.4,0.3-0.7,0.7-0.7
					c0.4,0,0.7,0.3,0.7,0.7C6.9,33,6.6,33.3,6.2,33.3z M83.1,31.9c0.4,0,0.7,0.3,0.7,0.7c0,0.4-0.3,0.7-0.7,0.7
					c-0.4,0-0.7-0.3-0.7-0.7C82.4,32.2,82.7,31.9,83.1,31.9z M83.1,44.2c0.4,0,0.7,0.3,0.7,0.7c0,0.4-0.3,0.7-0.7,0.7
					c-0.4,0-0.7-0.3-0.7-0.7C82.4,44.6,82.7,44.2,83.1,44.2z M80.6,46c0.4,1,1.4,1.7,2.5,1.7c1.5,0,2.7-1.2,2.7-2.7
					c0-1.5-1.2-2.7-2.7-2.7C82,42.2,81,43,80.6,44H66.5v-4.6h4.6c0.1,0,0.3,0,0.4-0.1l9.8-4.6c0.5,0.4,1.1,0.7,1.8,0.7
					c1.5,0,2.7-1.2,2.7-2.7c0-1.5-1.2-2.7-2.7-2.7c-1.5,0-2.7,1.2-2.7,2.7c0,0.1,0,0.2,0,0.2l-9.5,4.5h-4.4v-9.3c0-1.1-0.9-2-2-2
					h-1.3C62.8,13.7,54.6,3.8,44.7,3.8c-10,0-18.1,9.9-18.5,22.3h-1.3c-1.1,0-2,0.9-2,2v9.3h-4.4l-9.5-4.5c0-0.1,0-0.2,0-0.2
					c0-1.5-1.2-2.7-2.7-2.7s-2.7,1.2-2.7,2.7c0,1.5,1.2,2.7,2.7,2.7c0.7,0,1.3-0.3,1.8-0.7l9.8,4.6c0.1,0.1,0.3,0.1,0.4,0.1h4.6V44
					H8.7c-0.4-1-1.4-1.7-2.5-1.7c-1.5,0-2.7,1.2-2.7,2.7c0,1.5,1.2,2.7,2.7,2.7c1.1,0,2.1-0.7,2.5-1.7h14.1v4.6h-4.6
					c-0.1,0-0.3,0-0.4,0.1L8,55.3c-0.5-0.4-1.1-0.7-1.8-0.7c-1.5,0-2.7,1.2-2.7,2.7S4.7,60,6.2,60s2.7-1.2,2.7-2.7
					c0-0.1,0-0.1,0-0.2l9.5-4.5h4.4v7.9c0,1.1,0.9,2,2,2h39.7c1.1,0,2-0.9,2-2v-7.9h4.4l9.5,4.5c0,0.1,0,0.1,0,0.2
					c0,1.5,1.2,2.7,2.7,2.7c1.5,0,2.7-1.2,2.7-2.7s-1.2-2.7-2.7-2.7c-0.7,0-1.3,0.3-1.8,0.7l-9.8-4.6c-0.1-0.1-0.3-0.1-0.4-0.1h-4.6
					V46H80.6z"/>
				<path id="Fill-1" class="st0" d="M46.4,52.9h-3.4v-9.5c0,0,0,0,0,0c0-0.1,0-0.1,0-0.2c0-0.1,0-0.1,0-0.2c0-0.1-0.1-0.1-0.1-0.1
					c0-0.1-0.1-0.1-0.1-0.2c0,0,0,0,0,0c-0.8-0.6-1.2-1.5-1.2-2.5c0-1.8,1.5-3.3,3.3-3.3c1.8,0,3.3,1.5,3.3,3.3c0,1-0.4,1.9-1.2,2.5
					c0,0,0,0,0,0c-0.1,0-0.1,0.1-0.1,0.2c0,0-0.1,0.1-0.1,0.1c0,0.1,0,0.1-0.1,0.2c0,0.1,0,0.1,0,0.2c0,0,0,0,0,0V52.9z M44.7,34.8
					c-2.9,0-5.3,2.4-5.3,5.3c0,1.4,0.6,2.7,1.5,3.7v10.1c0,0.6,0.4,1,1,1h5.4c0.6,0,1-0.4,1-1V43.8c1-1,1.5-2.3,1.5-3.7
					C49.9,37.2,47.6,34.8,44.7,34.8z"/>
			</g>
		</g>
	</g>
</g>
</svg>
